# MagicaVoxel @ Ephtracy

# group
o 

# material
mtllib bridge.mtl
usemtl palette

# normals
vn -1 0 0
vn 1 0 0
vn 0 0 1
vn 0 0 -1
vn 0 -1 0
vn 0 1 0

# texcoords
vt 0.220703 0.5
vt 0.255859 0.5
vt 0.279297 0.5

# verts
v -0.8 0 0.8
v -0.8 0 -0.8
v -0.8 0.2 0.8
v -0.8 0.2 -0.8
v 0.7 0.1 0.8
v 0.7 0.1 0.7
v 0.7 0.1 0.4
v 0.7 0.1 0.3
v 0.7 0.1 0
v 0.7 0.1 -0.1
v 0.7 0.1 -0.4
v 0.7 0.1 -0.5
v 0.7 0.1 -0.8
v 0.7 0.2 0.8
v 0.7 0.2 -0.8
v -0.7 0.1 0.8
v -0.7 0.1 0.7
v -0.7 0.1 0.4
v -0.7 0.1 0.3
v -0.7 0.1 0
v -0.7 0.1 -0.1
v -0.7 0.1 -0.4
v -0.7 0.1 -0.5
v -0.7 0.1 -0.8
v -0.7 0.2 0.8
v -0.7 0.2 -0.8
v 0.8 0 0.8
v 0.8 0 -0.8
v 0.8 0.2 0.8
v 0.8 0.2 -0.8
v -0.8 0 0.8
v -0.8 0.2 0.8
v -0.7 0 0.8
v -0.7 0.1 0.8
v -0.7 0.2 0.8
v 0.7 0 0.8
v 0.7 0.1 0.8
v 0.7 0.2 0.8
v 0.8 0 0.8
v 0.8 0.2 0.8
v -0.8 0 -0.8
v -0.8 0.2 -0.8
v -0.7 0 -0.8
v -0.7 0.1 -0.8
v -0.7 0.2 -0.8
v 0.7 0 -0.8
v 0.7 0.1 -0.8
v 0.7 0.2 -0.8
v 0.8 0 -0.8
v 0.8 0.2 -0.8
v -0.8 0 0.8
v -0.7 0 0.8
v 0.7 0 0.8
v 0.8 0 0.8
v -0.7 0 0.7
v 0.7 0 0.7
v -0.7 0 0.4
v 0.7 0 0.4
v -0.7 0 0.3
v 0.7 0 0.3
v -0.7 0 0
v 0.7 0 0
v -0.7 0 -0.1
v 0.7 0 -0.1
v -0.7 0 -0.4
v 0.7 0 -0.4
v -0.7 0 -0.5
v 0.7 0 -0.5
v -0.8 0 -0.8
v -0.7 0 -0.8
v 0.7 0 -0.8
v 0.8 0 -0.8
v -0.7 0.1 0.8
v 0.7 0.1 0.8
v -0.7 0.1 0.7
v 0.7 0.1 0.7
v -0.7 0.1 0.4
v 0.7 0.1 0.4
v -0.7 0.1 0.3
v 0.7 0.1 0.3
v -0.7 0.1 0
v 0.7 0.1 0
v -0.7 0.1 -0.1
v 0.7 0.1 -0.1
v -0.7 0.1 -0.4
v 0.7 0.1 -0.4
v -0.7 0.1 -0.5
v 0.7 0.1 -0.5
v -0.7 0.1 -0.8
v 0.7 0.1 -0.8
v -0.8 0.2 0.8
v -0.7 0.2 0.8
v 0.7 0.2 0.8
v 0.8 0.2 0.8
v -0.8 0.2 -0.8
v -0.7 0.2 -0.8
v 0.7 0.2 -0.8
v 0.8 0.2 -0.8

# faces
f 3/2/1 2/2/1 1/2/1
f 4/2/1 2/2/1 3/2/1
f 14/2/1 6/2/1 5/2/1
f 14/2/1 13/2/1 12/2/1
f 14/2/1 12/2/1 11/2/1
f 14/2/1 11/2/1 10/2/1
f 14/2/1 10/2/1 9/2/1
f 14/2/1 9/2/1 8/2/1
f 14/2/1 8/2/1 7/2/1
f 14/2/1 7/2/1 6/2/1
f 15/2/1 13/2/1 14/2/1
f 16/2/2 17/2/2 25/2/2
f 23/2/2 24/2/2 25/2/2
f 22/2/2 23/2/2 25/2/2
f 21/2/2 22/2/2 25/2/2
f 20/2/2 21/2/2 25/2/2
f 19/2/2 20/2/2 25/2/2
f 18/2/2 19/2/2 25/2/2
f 17/2/2 18/2/2 25/2/2
f 25/2/2 24/2/2 26/2/2
f 27/2/2 28/2/2 29/2/2
f 29/2/2 28/2/2 30/2/2
f 33/2/3 32/2/3 31/2/3
f 34/2/3 32/2/3 33/2/3
f 35/2/3 32/2/3 34/2/3
f 36/1/3 34/1/3 33/1/3
f 37/1/3 34/1/3 36/1/3
f 39/2/3 37/2/3 36/2/3
f 39/2/3 38/2/3 37/2/3
f 40/2/3 38/2/3 39/2/3
f 41/2/4 42/2/4 43/2/4
f 43/2/4 42/2/4 44/2/4
f 44/2/4 42/2/4 45/2/4
f 43/3/4 44/3/4 46/3/4
f 46/3/4 44/3/4 47/3/4
f 46/2/4 47/2/4 49/2/4
f 47/2/4 48/2/4 49/2/4
f 49/2/4 48/2/4 50/2/4
f 55/2/5 52/2/5 51/2/5
f 55/1/5 53/1/5 52/1/5
f 56/2/5 54/2/5 53/2/5
f 56/1/5 53/1/5 55/1/5
f 57/2/5 55/2/5 51/2/5
f 57/3/5 56/3/5 55/3/5
f 58/2/5 54/2/5 56/2/5
f 58/3/5 56/3/5 57/3/5
f 59/2/5 57/2/5 51/2/5
f 59/1/5 58/1/5 57/1/5
f 60/2/5 54/2/5 58/2/5
f 60/1/5 58/1/5 59/1/5
f 61/2/5 59/2/5 51/2/5
f 61/3/5 60/3/5 59/3/5
f 62/2/5 54/2/5 60/2/5
f 62/3/5 60/3/5 61/3/5
f 63/2/5 61/2/5 51/2/5
f 63/1/5 62/1/5 61/1/5
f 64/2/5 54/2/5 62/2/5
f 64/1/5 62/1/5 63/1/5
f 65/2/5 63/2/5 51/2/5
f 65/3/5 64/3/5 63/3/5
f 66/2/5 54/2/5 64/2/5
f 66/3/5 64/3/5 65/3/5
f 67/2/5 65/2/5 51/2/5
f 67/1/5 66/1/5 65/1/5
f 68/2/5 54/2/5 66/2/5
f 68/1/5 66/1/5 67/1/5
f 69/2/5 67/2/5 51/2/5
f 70/3/5 68/3/5 67/3/5
f 70/2/5 67/2/5 69/2/5
f 71/2/5 54/2/5 68/2/5
f 71/3/5 68/3/5 70/3/5
f 72/2/5 54/2/5 71/2/5
f 73/1/6 74/1/6 75/1/6
f 75/1/6 74/1/6 76/1/6
f 75/3/6 76/3/6 77/3/6
f 77/3/6 76/3/6 78/3/6
f 77/1/6 78/1/6 79/1/6
f 79/1/6 78/1/6 80/1/6
f 79/3/6 80/3/6 81/3/6
f 81/3/6 80/3/6 82/3/6
f 81/1/6 82/1/6 83/1/6
f 83/1/6 82/1/6 84/1/6
f 83/3/6 84/3/6 85/3/6
f 85/3/6 84/3/6 86/3/6
f 85/1/6 86/1/6 87/1/6
f 87/1/6 86/1/6 88/1/6
f 87/3/6 88/3/6 89/3/6
f 89/3/6 88/3/6 90/3/6
f 91/2/6 92/2/6 95/2/6
f 95/2/6 92/2/6 96/2/6
f 93/2/6 94/2/6 97/2/6
f 97/2/6 94/2/6 98/2/6
