# MagicaVoxel @ Ephtracy

# group
o 

# material
mtllib rock.mtl
usemtl palette

# normals
vn -1 0 0
vn 1 0 0
vn 0 0 1
vn 0 0 -1
vn 0 -1 0
vn 0 1 0

# texcoords
vt 0.982422 0.5

# verts
v -0.8 0 0.2
v -0.8 0 -0.2
v -0.8 0.1 0.2
v -0.8 0.1 -0.2
v -0.7 0 0.5
v -0.7 0 0.2
v -0.7 0 -0.2
v -0.7 0 -0.5
v -0.7 0.1 0.2
v -0.7 0.1 -0.2
v -0.7 0.2 0.5
v -0.7 0.2 0.4
v -0.7 0.2 -0.4
v -0.7 0.2 -0.5
v -0.7 0.3 0.4
v -0.7 0.3 0.3
v -0.7 0.3 -0.3
v -0.7 0.3 -0.4
v -0.7 0.4 -0.2
v -0.7 0.4 -0.3
v -0.7 0.5 0.3
v -0.7 0.5 -0.2
v -0.6 0 0.7
v -0.6 0 0.5
v -0.6 0.2 0.7
v -0.6 0.2 0.6
v -0.6 0.2 0.5
v -0.6 0.2 0.4
v -0.6 0.2 -0.4
v -0.6 0.2 -0.5
v -0.6 0.3 0.4
v -0.6 0.3 0.3
v -0.6 0.3 -0.3
v -0.6 0.3 -0.4
v -0.6 0.4 -0.2
v -0.6 0.4 -0.3
v -0.6 0.5 0.3
v -0.6 0.5 -0.2
v -0.6 0.6 -0.2
v -0.6 0.6 -0.5
v -0.6 0.7 0.6
v -0.6 0.7 0.3
v -0.6 0.8 -0.1
v -0.6 0.8 -0.2
v -0.6 0.9 0.3
v -0.6 0.9 -0.1
v -0.5 0 -0.5
v -0.5 0 -0.7
v -0.5 0.2 -0.5
v -0.5 0.2 -0.7
v -0.4 0 0.8
v -0.4 0 0.7
v -0.4 0.1 0.8
v -0.4 0.1 0.7
v -0.4 0.2 0.7
v -0.4 0.2 0.6
v -0.4 0.2 -0.5
v -0.4 0.2 -0.6
v -0.4 0.5 0.7
v -0.4 0.5 0.6
v -0.4 0.6 -0.2
v -0.4 0.6 -0.5
v -0.4 0.7 0.6
v -0.4 0.7 0.3
v -0.4 0.8 -0.1
v -0.4 0.8 -0.2
v -0.4 0.9 0.3
v -0.4 0.9 -0.1
v -0.4 0.9 -0.5
v -0.4 0.9 -0.6
v -0.4 1 0.6
v -0.4 1 0.5
v -0.4 1 -0.3
v -0.4 1 -0.5
v -0.4 1.2 0.5
v -0.4 1.2 0.3
v -0.4 1.3 0.3
v -0.4 1.3 -0.3
v -0.3 0.1 0.8
v -0.3 0.1 0.7
v -0.3 0.2 0.8
v -0.3 0.2 0.7
v -0.3 0.2 -0.6
v -0.3 0.2 -0.7
v -0.3 0.5 0.7
v -0.3 0.5 0.6
v -0.3 0.5 -0.6
v -0.3 0.5 -0.7
v -0.3 0.6 0.7
v -0.3 0.6 0.6
v -0.3 1.2 0.4
v -0.3 1.2 0.3
v -0.3 1.3 0.3
v -0.3 1.3 -0.2
v -0.3 1.4 0.4
v -0.3 1.4 -0.2
v -0.2 0 -0.7
v -0.2 0 -0.8
v -0.2 0.1 -0.7
v -0.2 0.1 -0.8
v -0.2 0.2 0.8
v -0.2 0.2 0.7
v -0.2 0.3 0.8
v -0.2 0.3 0.7
v -0.2 0.5 -0.6
v -0.2 0.5 -0.7
v -0.2 0.6 0.7
v -0.2 0.6 0.6
v -0.2 0.7 0.7
v -0.2 0.7 0.6
v -0.2 0.7 -0.6
v -0.2 0.7 -0.7
v -0.1 1 0.6
v -0.1 1 0.5
v -0.1 1 -0.3
v -0.1 1 -0.5
v -0.1 1.1 -0.3
v -0.1 1.1 -0.5
v -0.1 1.2 0.6
v -0.1 1.2 0.5
v 0.1 1 -0.3
v 0.1 1 -0.5
v 0.1 1.1 -0.3
v 0.1 1.1 -0.5
v 0.1 1.2 0.4
v 0.1 1.2 0.3
v 0.1 1.3 0.3
v 0.1 1.3 -0.2
v 0.1 1.4 0.4
v 0.1 1.4 -0.2
v 0.2 0 -0.7
v 0.2 0 -0.8
v 0.2 0.1 -0.7
v 0.2 0.1 -0.8
v 0.2 0.2 0.8
v 0.2 0.2 0.7
v 0.2 0.3 0.8
v 0.2 0.3 0.7
v 0.2 0.6 0.7
v 0.2 0.6 0.6
v 0.2 0.6 -0.5
v 0.2 0.6 -0.7
v 0.2 0.7 0.7
v 0.2 0.7 0.6
v 0.2 0.7 -0.6
v 0.2 0.7 -0.7
v 0.2 0.8 0.6
v 0.2 0.8 0.4
v 0.2 0.9 -0.3
v 0.2 0.9 -0.5
v 0.2 0.9 -0.6
v 0.2 1 -0.3
v 0.2 1 -0.5
v 0.2 1.2 0.6
v 0.2 1.2 0.4
v 0.3 0.1 0.8
v 0.3 0.1 0.7
v 0.3 0.2 0.8
v 0.3 0.2 0.7
v 0.3 0.5 0.7
v 0.3 0.5 0.6
v 0.3 0.5 -0.5
v 0.3 0.5 -0.7
v 0.3 0.6 0.7
v 0.3 0.6 0.6
v 0.3 0.6 -0.5
v 0.3 0.6 -0.7
v 0.3 1 -0.1
v 0.3 1 -0.3
v 0.3 1.2 0.3
v 0.3 1.2 -0.1
v 0.3 1.3 0.3
v 0.3 1.3 -0.3
v 0.4 0 0.8
v 0.4 0 0.7
v 0.4 0.1 0.8
v 0.4 0.1 0.7
v 0.4 0.3 -0.5
v 0.4 0.3 -0.7
v 0.4 0.5 -0.5
v 0.4 0.5 -0.7
v 0.5 1 0.4
v 0.5 1 -0.1
v 0.5 1.2 0.4
v 0.5 1.2 -0.1
v 0.6 0 0.7
v 0.6 0 0.5
v 0.6 0 -0.5
v 0.6 0 -0.7
v 0.6 0.2 -0.4
v 0.6 0.2 -0.5
v 0.6 0.3 0.5
v 0.6 0.3 0.3
v 0.6 0.3 -0.3
v 0.6 0.3 -0.4
v 0.6 0.3 -0.5
v 0.6 0.3 -0.7
v 0.6 0.4 0.3
v 0.6 0.4 0.2
v 0.6 0.4 -0.2
v 0.6 0.4 -0.3
v 0.6 0.5 0.7
v 0.6 0.5 0.6
v 0.6 0.5 0.2
v 0.6 0.5 -0.2
v 0.6 0.8 0.6
v 0.6 0.8 0.4
v 0.6 0.9 -0.3
v 0.6 0.9 -0.5
v 0.6 1 0.4
v 0.6 1 -0.3
v 0.7 0 0.5
v 0.7 0 0.2
v 0.7 0 -0.2
v 0.7 0 -0.5
v 0.7 0.1 0.2
v 0.7 0.1 -0.2
v 0.7 0.2 -0.4
v 0.7 0.2 -0.5
v 0.7 0.3 0.5
v 0.7 0.3 0.3
v 0.7 0.3 -0.3
v 0.7 0.3 -0.4
v 0.7 0.4 0.3
v 0.7 0.4 0.2
v 0.7 0.4 -0.2
v 0.7 0.4 -0.3
v 0.7 0.5 0.2
v 0.7 0.5 -0.2
v 0.8 0 0.2
v 0.8 0 -0.2
v 0.8 0.1 0.2
v 0.8 0.1 -0.2
v -0.4 0 0.8
v -0.4 0.1 0.8
v -0.3 0.1 0.8
v -0.3 0.2 0.8
v -0.2 0.2 0.8
v -0.2 0.3 0.8
v 0.2 0.2 0.8
v 0.2 0.3 0.8
v 0.3 0.1 0.8
v 0.3 0.2 0.8
v 0.4 0 0.8
v 0.4 0.1 0.8
v -0.6 0 0.7
v -0.6 0.2 0.7
v -0.4 0 0.7
v -0.4 0.1 0.7
v -0.4 0.2 0.7
v -0.4 0.5 0.7
v -0.3 0.1 0.7
v -0.3 0.2 0.7
v -0.3 0.5 0.7
v -0.3 0.6 0.7
v -0.2 0.2 0.7
v -0.2 0.3 0.7
v -0.2 0.6 0.7
v -0.2 0.7 0.7
v 0.2 0.2 0.7
v 0.2 0.3 0.7
v 0.2 0.6 0.7
v 0.2 0.7 0.7
v 0.3 0.1 0.7
v 0.3 0.2 0.7
v 0.3 0.5 0.7
v 0.3 0.6 0.7
v 0.4 0 0.7
v 0.4 0.1 0.7
v 0.6 0 0.7
v 0.6 0.5 0.7
v -0.6 0.2 0.6
v -0.6 0.7 0.6
v -0.4 0.2 0.6
v -0.4 0.5 0.6
v -0.4 0.7 0.6
v -0.4 1 0.6
v -0.3 0.5 0.6
v -0.3 0.6 0.6
v -0.2 0.6 0.6
v -0.2 0.7 0.6
v -0.1 1 0.6
v -0.1 1.2 0.6
v 0.2 0.6 0.6
v 0.2 0.7 0.6
v 0.2 0.8 0.6
v 0.2 1.2 0.6
v 0.3 0.5 0.6
v 0.3 0.6 0.6
v 0.6 0.5 0.6
v 0.6 0.8 0.6
v -0.7 0 0.5
v -0.7 0.2 0.5
v -0.6 0 0.5
v -0.6 0.2 0.5
v -0.4 1 0.5
v -0.4 1.2 0.5
v -0.1 1 0.5
v -0.1 1.2 0.5
v 0.6 0 0.5
v 0.6 0.3 0.5
v 0.7 0 0.5
v 0.7 0.3 0.5
v -0.7 0.2 0.4
v -0.7 0.3 0.4
v -0.6 0.2 0.4
v -0.6 0.3 0.4
v -0.3 1.2 0.4
v -0.3 1.4 0.4
v 0.1 1.2 0.4
v 0.1 1.4 0.4
v 0.2 0.8 0.4
v 0.2 1.2 0.4
v 0.5 1 0.4
v 0.5 1.2 0.4
v 0.6 0.8 0.4
v 0.6 1 0.4
v -0.7 0.3 0.3
v -0.7 0.5 0.3
v -0.6 0.3 0.3
v -0.6 0.5 0.3
v -0.6 0.7 0.3
v -0.6 0.9 0.3
v -0.4 0.7 0.3
v -0.4 0.9 0.3
v -0.4 1.2 0.3
v -0.4 1.3 0.3
v -0.3 1.2 0.3
v -0.3 1.3 0.3
v 0.1 1.2 0.3
v 0.1 1.3 0.3
v 0.3 1.2 0.3
v 0.3 1.3 0.3
v 0.6 0.3 0.3
v 0.6 0.4 0.3
v 0.7 0.3 0.3
v 0.7 0.4 0.3
v -0.8 0 0.2
v -0.8 0.1 0.2
v -0.7 0 0.2
v -0.7 0.1 0.2
v 0.6 0.4 0.2
v 0.6 0.5 0.2
v 0.7 0 0.2
v 0.7 0.1 0.2
v 0.7 0.4 0.2
v 0.7 0.5 0.2
v 0.8 0 0.2
v 0.8 0.1 0.2
v -0.6 0.8 -0.1
v -0.6 0.9 -0.1
v -0.4 0.8 -0.1
v -0.4 0.9 -0.1
v 0.3 1 -0.1
v 0.3 1.2 -0.1
v 0.5 1 -0.1
v 0.5 1.2 -0.1
v -0.8 0 -0.2
v -0.8 0.1 -0.2
v -0.7 0 -0.2
v -0.7 0.1 -0.2
v -0.7 0.4 -0.2
v -0.7 0.5 -0.2
v -0.6 0.4 -0.2
v -0.6 0.5 -0.2
v -0.6 0.6 -0.2
v -0.6 0.8 -0.2
v -0.4 0.6 -0.2
v -0.4 0.8 -0.2
v -0.3 1.3 -0.2
v -0.3 1.4 -0.2
v 0.1 1.3 -0.2
v 0.1 1.4 -0.2
v 0.6 0.4 -0.2
v 0.6 0.5 -0.2
v 0.7 0 -0.2
v 0.7 0.1 -0.2
v 0.7 0.4 -0.2
v 0.7 0.5 -0.2
v 0.8 0 -0.2
v 0.8 0.1 -0.2
v -0.7 0.3 -0.3
v -0.7 0.4 -0.3
v -0.6 0.3 -0.3
v -0.6 0.4 -0.3
v -0.4 1 -0.3
v -0.4 1.3 -0.3
v -0.1 1 -0.3
v -0.1 1.1 -0.3
v 0.1 1 -0.3
v 0.1 1.1 -0.3
v 0.2 0.9 -0.3
v 0.2 1 -0.3
v 0.3 1 -0.3
v 0.3 1.3 -0.3
v 0.6 0.3 -0.3
v 0.6 0.4 -0.3
v 0.6 0.9 -0.3
v 0.6 1 -0.3
v 0.7 0.3 -0.3
v 0.7 0.4 -0.3
v -0.7 0.2 -0.4
v -0.7 0.3 -0.4
v -0.6 0.2 -0.4
v -0.6 0.3 -0.4
v 0.6 0.2 -0.4
v 0.6 0.3 -0.4
v 0.7 0.2 -0.4
v 0.7 0.3 -0.4
v -0.7 0 -0.5
v -0.7 0.2 -0.5
v -0.6 0.2 -0.5
v -0.6 0.6 -0.5
v -0.5 0 -0.5
v -0.5 0.2 -0.5
v -0.4 0.2 -0.5
v -0.4 0.6 -0.5
v -0.4 0.9 -0.5
v -0.4 1 -0.5
v -0.1 1 -0.5
v -0.1 1.1 -0.5
v 0.1 1 -0.5
v 0.1 1.1 -0.5
v 0.2 0.6 -0.5
v 0.2 0.9 -0.5
v 0.2 1 -0.5
v 0.3 0.5 -0.5
v 0.3 0.6 -0.5
v 0.4 0.3 -0.5
v 0.4 0.5 -0.5
v 0.6 0 -0.5
v 0.6 0.2 -0.5
v 0.6 0.3 -0.5
v 0.6 0.9 -0.5
v 0.7 0 -0.5
v 0.7 0.2 -0.5
v -0.4 0.2 -0.6
v -0.4 0.9 -0.6
v -0.3 0.2 -0.6
v -0.3 0.5 -0.6
v -0.2 0.5 -0.6
v -0.2 0.7 -0.6
v 0.2 0.7 -0.6
v 0.2 0.9 -0.6
v -0.5 0 -0.7
v -0.5 0.2 -0.7
v -0.3 0.2 -0.7
v -0.3 0.5 -0.7
v -0.2 0 -0.7
v -0.2 0.1 -0.7
v -0.2 0.5 -0.7
v -0.2 0.7 -0.7
v 0.2 0 -0.7
v 0.2 0.1 -0.7
v 0.2 0.6 -0.7
v 0.2 0.7 -0.7
v 0.3 0.5 -0.7
v 0.3 0.6 -0.7
v 0.4 0.3 -0.7
v 0.4 0.5 -0.7
v 0.6 0 -0.7
v 0.6 0.3 -0.7
v -0.2 0 -0.8
v -0.2 0.1 -0.8
v 0.2 0 -0.8
v 0.2 0.1 -0.8
v -0.4 0 0.8
v 0.4 0 0.8
v -0.6 0 0.7
v -0.4 0 0.7
v 0.4 0 0.7
v 0.6 0 0.7
v -0.7 0 0.5
v -0.6 0 0.5
v 0.6 0 0.5
v 0.7 0 0.5
v -0.8 0 0.2
v -0.7 0 0.2
v 0.7 0 0.2
v 0.8 0 0.2
v -0.8 0 -0.2
v -0.7 0 -0.2
v 0.7 0 -0.2
v 0.8 0 -0.2
v -0.7 0 -0.5
v -0.5 0 -0.5
v 0.6 0 -0.5
v 0.7 0 -0.5
v -0.5 0 -0.7
v -0.2 0 -0.7
v 0.2 0 -0.7
v 0.6 0 -0.7
v -0.2 0 -0.8
v 0.2 0 -0.8
v -0.4 0.1 0.8
v -0.3 0.1 0.8
v 0.3 0.1 0.8
v 0.4 0.1 0.8
v -0.4 0.1 0.7
v -0.3 0.1 0.7
v 0.3 0.1 0.7
v 0.4 0.1 0.7
v -0.8 0.1 0.2
v -0.7 0.1 0.2
v 0.7 0.1 0.2
v 0.8 0.1 0.2
v -0.8 0.1 -0.2
v -0.7 0.1 -0.2
v 0.7 0.1 -0.2
v 0.8 0.1 -0.2
v -0.2 0.1 -0.7
v 0.2 0.1 -0.7
v -0.2 0.1 -0.8
v 0.2 0.1 -0.8
v -0.3 0.2 0.8
v -0.2 0.2 0.8
v 0.2 0.2 0.8
v 0.3 0.2 0.8
v -0.6 0.2 0.7
v -0.4 0.2 0.7
v -0.3 0.2 0.7
v -0.2 0.2 0.7
v 0.2 0.2 0.7
v 0.3 0.2 0.7
v -0.6 0.2 0.6
v -0.4 0.2 0.6
v -0.7 0.2 0.5
v -0.6 0.2 0.5
v -0.7 0.2 0.4
v -0.6 0.2 0.4
v -0.7 0.2 -0.4
v -0.6 0.2 -0.4
v 0.6 0.2 -0.4
v 0.7 0.2 -0.4
v -0.7 0.2 -0.5
v -0.6 0.2 -0.5
v -0.5 0.2 -0.5
v -0.4 0.2 -0.5
v 0.6 0.2 -0.5
v 0.7 0.2 -0.5
v -0.4 0.2 -0.6
v -0.3 0.2 -0.6
v -0.5 0.2 -0.7
v -0.3 0.2 -0.7
v -0.2 0.3 0.8
v 0.2 0.3 0.8
v -0.2 0.3 0.7
v 0.2 0.3 0.7
v 0.6 0.3 0.5
v 0.7 0.3 0.5
v -0.7 0.3 0.4
v -0.6 0.3 0.4
v -0.7 0.3 0.3
v -0.6 0.3 0.3
v 0.6 0.3 0.3
v 0.7 0.3 0.3
v -0.7 0.3 -0.3
v -0.6 0.3 -0.3
v 0.6 0.3 -0.3
v 0.7 0.3 -0.3
v -0.7 0.3 -0.4
v -0.6 0.3 -0.4
v 0.6 0.3 -0.4
v 0.7 0.3 -0.4
v 0.4 0.3 -0.5
v 0.6 0.3 -0.5
v 0.4 0.3 -0.7
v 0.6 0.3 -0.7
v 0.6 0.4 0.3
v 0.7 0.4 0.3
v 0.6 0.4 0.2
v 0.7 0.4 0.2
v -0.7 0.4 -0.2
v -0.6 0.4 -0.2
v 0.6 0.4 -0.2
v 0.7 0.4 -0.2
v -0.7 0.4 -0.3
v -0.6 0.4 -0.3
v 0.6 0.4 -0.3
v 0.7 0.4 -0.3
v -0.4 0.5 0.7
v -0.3 0.5 0.7
v 0.3 0.5 0.7
v 0.6 0.5 0.7
v -0.4 0.5 0.6
v -0.3 0.5 0.6
v 0.3 0.5 0.6
v 0.6 0.5 0.6
v -0.7 0.5 0.3
v -0.6 0.5 0.3
v 0.6 0.5 0.2
v 0.7 0.5 0.2
v -0.7 0.5 -0.2
v -0.6 0.5 -0.2
v 0.6 0.5 -0.2
v 0.7 0.5 -0.2
v 0.3 0.5 -0.5
v 0.4 0.5 -0.5
v -0.3 0.5 -0.6
v -0.2 0.5 -0.6
v -0.3 0.5 -0.7
v -0.2 0.5 -0.7
v 0.3 0.5 -0.7
v 0.4 0.5 -0.7
v -0.3 0.6 0.7
v -0.2 0.6 0.7
v 0.2 0.6 0.7
v 0.3 0.6 0.7
v -0.3 0.6 0.6
v -0.2 0.6 0.6
v 0.2 0.6 0.6
v 0.3 0.6 0.6
v -0.6 0.6 -0.2
v -0.4 0.6 -0.2
v -0.6 0.6 -0.5
v -0.4 0.6 -0.5
v 0.2 0.6 -0.5
v 0.3 0.6 -0.5
v 0.2 0.6 -0.7
v 0.3 0.6 -0.7
v -0.2 0.7 0.7
v 0.2 0.7 0.7
v -0.6 0.7 0.6
v -0.4 0.7 0.6
v -0.2 0.7 0.6
v 0.2 0.7 0.6
v -0.6 0.7 0.3
v -0.4 0.7 0.3
v -0.2 0.7 -0.6
v 0.2 0.7 -0.6
v -0.2 0.7 -0.7
v 0.2 0.7 -0.7
v 0.2 0.8 0.6
v 0.6 0.8 0.6
v 0.2 0.8 0.4
v 0.6 0.8 0.4
v -0.6 0.8 -0.1
v -0.4 0.8 -0.1
v -0.6 0.8 -0.2
v -0.4 0.8 -0.2
v -0.6 0.9 0.3
v -0.4 0.9 0.3
v -0.6 0.9 -0.1
v -0.4 0.9 -0.1
v 0.2 0.9 -0.3
v 0.6 0.9 -0.3
v -0.4 0.9 -0.5
v 0.2 0.9 -0.5
v 0.6 0.9 -0.5
v -0.4 0.9 -0.6
v 0.2 0.9 -0.6
v -0.4 1 0.6
v -0.1 1 0.6
v -0.4 1 0.5
v -0.1 1 0.5
v 0.5 1 0.4
v 0.6 1 0.4
v 0.3 1 -0.1
v 0.5 1 -0.1
v -0.4 1 -0.3
v -0.1 1 -0.3
v 0.1 1 -0.3
v 0.2 1 -0.3
v 0.3 1 -0.3
v 0.6 1 -0.3
v -0.4 1 -0.5
v -0.1 1 -0.5
v 0.1 1 -0.5
v 0.2 1 -0.5
v -0.1 1.1 -0.3
v 0.1 1.1 -0.3
v -0.1 1.1 -0.5
v 0.1 1.1 -0.5
v -0.1 1.2 0.6
v 0.2 1.2 0.6
v -0.4 1.2 0.5
v -0.1 1.2 0.5
v -0.3 1.2 0.4
v 0.1 1.2 0.4
v 0.2 1.2 0.4
v 0.5 1.2 0.4
v -0.4 1.2 0.3
v -0.3 1.2 0.3
v 0.1 1.2 0.3
v 0.3 1.2 0.3
v 0.3 1.2 -0.1
v 0.5 1.2 -0.1
v -0.4 1.3 0.3
v -0.3 1.3 0.3
v 0.1 1.3 0.3
v 0.3 1.3 0.3
v -0.3 1.3 -0.2
v 0.1 1.3 -0.2
v -0.4 1.3 -0.3
v 0.3 1.3 -0.3
v -0.3 1.4 0.4
v 0.1 1.4 0.4
v -0.3 1.4 -0.2
v 0.1 1.4 -0.2

# faces
f 3/1/1 2/1/1 1/1/1
f 4/1/1 2/1/1 3/1/1
f 9/1/1 6/1/1 5/1/1
f 10/1/1 8/1/1 7/1/1
f 11/1/1 9/1/1 5/1/1
f 11/1/1 10/1/1 9/1/1
f 12/1/1 10/1/1 11/1/1
f 13/1/1 8/1/1 10/1/1
f 13/1/1 10/1/1 12/1/1
f 14/1/1 8/1/1 13/1/1
f 15/1/1 13/1/1 12/1/1
f 16/1/1 13/1/1 15/1/1
f 17/1/1 13/1/1 16/1/1
f 18/1/1 13/1/1 17/1/1
f 19/1/1 17/1/1 16/1/1
f 20/1/1 17/1/1 19/1/1
f 21/1/1 19/1/1 16/1/1
f 22/1/1 19/1/1 21/1/1
f 25/1/1 24/1/1 23/1/1
f 26/1/1 24/1/1 25/1/1
f 27/1/1 24/1/1 26/1/1
f 31/1/1 27/1/1 26/1/1
f 31/1/1 28/1/1 27/1/1
f 34/1/1 30/1/1 29/1/1
f 36/1/1 34/1/1 33/1/1
f 37/1/1 32/1/1 31/1/1
f 38/1/1 36/1/1 35/1/1
f 39/1/1 36/1/1 38/1/1
f 39/1/1 38/1/1 37/1/1
f 40/1/1 30/1/1 34/1/1
f 40/1/1 36/1/1 39/1/1
f 40/1/1 34/1/1 36/1/1
f 41/1/1 37/1/1 31/1/1
f 41/1/1 31/1/1 26/1/1
f 41/1/1 39/1/1 37/1/1
f 42/1/1 39/1/1 41/1/1
f 43/1/1 39/1/1 42/1/1
f 44/1/1 39/1/1 43/1/1
f 45/1/1 43/1/1 42/1/1
f 46/1/1 43/1/1 45/1/1
f 49/1/1 48/1/1 47/1/1
f 50/1/1 48/1/1 49/1/1
f 53/1/1 52/1/1 51/1/1
f 54/1/1 52/1/1 53/1/1
f 59/1/1 56/1/1 55/1/1
f 60/1/1 56/1/1 59/1/1
f 62/1/1 58/1/1 57/1/1
f 66/1/1 62/1/1 61/1/1
f 67/1/1 64/1/1 63/1/1
f 68/1/1 66/1/1 65/1/1
f 69/1/1 58/1/1 62/1/1
f 69/1/1 62/1/1 66/1/1
f 69/1/1 66/1/1 68/1/1
f 70/1/1 58/1/1 69/1/1
f 71/1/1 68/1/1 67/1/1
f 71/1/1 67/1/1 63/1/1
f 71/1/1 69/1/1 68/1/1
f 72/1/1 69/1/1 71/1/1
f 73/1/1 69/1/1 72/1/1
f 74/1/1 69/1/1 73/1/1
f 75/1/1 73/1/1 72/1/1
f 76/1/1 73/1/1 75/1/1
f 77/1/1 73/1/1 76/1/1
f 78/1/1 73/1/1 77/1/1
f 81/1/1 80/1/1 79/1/1
f 82/1/1 80/1/1 81/1/1
f 87/1/1 84/1/1 83/1/1
f 88/1/1 84/1/1 87/1/1
f 89/1/1 86/1/1 85/1/1
f 90/1/1 86/1/1 89/1/1
f 93/1/1 92/1/1 91/1/1
f 95/1/1 93/1/1 91/1/1
f 95/1/1 94/1/1 93/1/1
f 96/1/1 94/1/1 95/1/1
f 99/1/1 98/1/1 97/1/1
f 100/1/1 98/1/1 99/1/1
f 103/1/1 102/1/1 101/1/1
f 104/1/1 102/1/1 103/1/1
f 109/1/1 108/1/1 107/1/1
f 110/1/1 108/1/1 109/1/1
f 111/1/1 106/1/1 105/1/1
f 112/1/1 106/1/1 111/1/1
f 117/1/1 116/1/1 115/1/1
f 118/1/1 116/1/1 117/1/1
f 119/1/1 114/1/1 113/1/1
f 120/1/1 114/1/1 119/1/1
f 121/1/2 122/1/2 123/1/2
f 123/1/2 122/1/2 124/1/2
f 125/1/2 126/1/2 127/1/2
f 125/1/2 127/1/2 129/1/2
f 127/1/2 128/1/2 129/1/2
f 129/1/2 128/1/2 130/1/2
f 131/1/2 132/1/2 133/1/2
f 133/1/2 132/1/2 134/1/2
f 135/1/2 136/1/2 137/1/2
f 137/1/2 136/1/2 138/1/2
f 139/1/2 140/1/2 143/1/2
f 143/1/2 140/1/2 144/1/2
f 141/1/2 142/1/2 145/1/2
f 145/1/2 142/1/2 146/1/2
f 141/1/2 145/1/2 150/1/2
f 150/1/2 145/1/2 151/1/2
f 149/1/2 150/1/2 152/1/2
f 152/1/2 150/1/2 153/1/2
f 147/1/2 148/1/2 154/1/2
f 154/1/2 148/1/2 155/1/2
f 156/1/2 157/1/2 158/1/2
f 158/1/2 157/1/2 159/1/2
f 160/1/2 161/1/2 164/1/2
f 164/1/2 161/1/2 165/1/2
f 162/1/2 163/1/2 166/1/2
f 166/1/2 163/1/2 167/1/2
f 168/1/2 169/1/2 171/1/2
f 170/1/2 171/1/2 172/1/2
f 171/1/2 169/1/2 173/1/2
f 172/1/2 171/1/2 173/1/2
f 174/1/2 175/1/2 176/1/2
f 176/1/2 175/1/2 177/1/2
f 178/1/2 179/1/2 180/1/2
f 180/1/2 179/1/2 181/1/2
f 182/1/2 183/1/2 184/1/2
f 184/1/2 183/1/2 185/1/2
f 188/1/2 189/1/2 191/1/2
f 186/1/2 187/1/2 192/1/2
f 190/1/2 191/1/2 195/1/2
f 191/1/2 189/1/2 196/1/2
f 195/1/2 191/1/2 196/1/2
f 196/1/2 189/1/2 197/1/2
f 192/1/2 193/1/2 198/1/2
f 194/1/2 195/1/2 201/1/2
f 195/1/2 196/1/2 201/1/2
f 198/1/2 199/1/2 202/1/2
f 186/1/2 192/1/2 202/1/2
f 192/1/2 198/1/2 202/1/2
f 202/1/2 199/1/2 203/1/2
f 203/1/2 199/1/2 204/1/2
f 200/1/2 201/1/2 205/1/2
f 203/1/2 204/1/2 206/1/2
f 204/1/2 205/1/2 206/1/2
f 206/1/2 205/1/2 207/1/2
f 205/1/2 201/1/2 208/1/2
f 207/1/2 205/1/2 208/1/2
f 201/1/2 196/1/2 208/1/2
f 208/1/2 196/1/2 209/1/2
f 207/1/2 208/1/2 210/1/2
f 210/1/2 208/1/2 211/1/2
f 212/1/2 213/1/2 216/1/2
f 214/1/2 215/1/2 217/1/2
f 217/1/2 215/1/2 218/1/2
f 216/1/2 217/1/2 218/1/2
f 218/1/2 215/1/2 219/1/2
f 212/1/2 216/1/2 220/1/2
f 216/1/2 218/1/2 220/1/2
f 220/1/2 218/1/2 221/1/2
f 221/1/2 218/1/2 222/1/2
f 222/1/2 218/1/2 223/1/2
f 221/1/2 222/1/2 224/1/2
f 224/1/2 222/1/2 225/1/2
f 225/1/2 222/1/2 226/1/2
f 226/1/2 222/1/2 227/1/2
f 225/1/2 226/1/2 228/1/2
f 228/1/2 226/1/2 229/1/2
f 230/1/2 231/1/2 232/1/2
f 232/1/2 231/1/2 233/1/2
f 236/1/3 235/1/3 234/1/3
f 238/1/3 237/1/3 236/1/3
f 240/1/3 238/1/3 236/1/3
f 240/1/3 239/1/3 238/1/3
f 241/1/3 239/1/3 240/1/3
f 242/1/3 236/1/3 234/1/3
f 242/1/3 240/1/3 236/1/3
f 243/1/3 240/1/3 242/1/3
f 244/1/3 242/1/3 234/1/3
f 245/1/3 242/1/3 244/1/3
f 248/1/3 247/1/3 246/1/3
f 249/1/3 247/1/3 248/1/3
f 250/1/3 247/1/3 249/1/3
f 252/1/3 251/1/3 250/1/3
f 252/1/3 250/1/3 249/1/3
f 253/1/3 251/1/3 252/1/3
f 254/1/3 251/1/3 253/1/3
f 256/1/3 255/1/3 254/1/3
f 256/1/3 254/1/3 253/1/3
f 257/1/3 255/1/3 256/1/3
f 258/1/3 255/1/3 257/1/3
f 261/1/3 259/1/3 258/1/3
f 261/1/3 258/1/3 257/1/3
f 262/1/3 259/1/3 261/1/3
f 263/1/3 259/1/3 262/1/3
f 265/1/3 261/1/3 260/1/3
f 265/1/3 262/1/3 261/1/3
f 266/1/3 262/1/3 265/1/3
f 267/1/3 262/1/3 266/1/3
f 269/1/3 265/1/3 264/1/3
f 269/1/3 266/1/3 265/1/3
f 270/1/3 269/1/3 268/1/3
f 271/1/3 266/1/3 269/1/3
f 271/1/3 269/1/3 270/1/3
f 274/1/3 273/1/3 272/1/3
f 275/1/3 273/1/3 274/1/3
f 276/1/3 273/1/3 275/1/3
f 278/1/3 277/1/3 276/1/3
f 278/1/3 276/1/3 275/1/3
f 279/1/3 277/1/3 278/1/3
f 280/1/3 277/1/3 279/1/3
f 281/1/3 277/1/3 280/1/3
f 282/1/3 277/1/3 281/1/3
f 285/1/3 282/1/3 281/1/3
f 285/1/3 283/1/3 282/1/3
f 286/1/3 283/1/3 285/1/3
f 287/1/3 283/1/3 286/1/3
f 289/1/3 285/1/3 284/1/3
f 289/1/3 286/1/3 285/1/3
f 290/1/3 289/1/3 288/1/3
f 291/1/3 286/1/3 289/1/3
f 291/1/3 289/1/3 290/1/3
f 294/1/3 293/1/3 292/1/3
f 295/1/3 293/1/3 294/1/3
f 298/1/3 297/1/3 296/1/3
f 299/1/3 297/1/3 298/1/3
f 302/1/3 301/1/3 300/1/3
f 303/1/3 301/1/3 302/1/3
f 306/1/3 305/1/3 304/1/3
f 307/1/3 305/1/3 306/1/3
f 310/1/3 309/1/3 308/1/3
f 311/1/3 309/1/3 310/1/3
f 314/1/3 313/1/3 312/1/3
f 315/1/3 313/1/3 314/1/3
f 316/1/3 314/1/3 312/1/3
f 317/1/3 314/1/3 316/1/3
f 320/1/3 319/1/3 318/1/3
f 321/1/3 319/1/3 320/1/3
f 324/1/3 323/1/3 322/1/3
f 325/1/3 323/1/3 324/1/3
f 328/1/3 327/1/3 326/1/3
f 329/1/3 327/1/3 328/1/3
f 332/1/3 331/1/3 330/1/3
f 333/1/3 331/1/3 332/1/3
f 336/1/3 335/1/3 334/1/3
f 337/1/3 335/1/3 336/1/3
f 340/1/3 339/1/3 338/1/3
f 341/1/3 339/1/3 340/1/3
f 346/1/3 343/1/3 342/1/3
f 347/1/3 343/1/3 346/1/3
f 348/1/3 345/1/3 344/1/3
f 349/1/3 345/1/3 348/1/3
f 350/1/4 351/1/4 352/1/4
f 352/1/4 351/1/4 353/1/4
f 354/1/4 355/1/4 356/1/4
f 356/1/4 355/1/4 357/1/4
f 358/1/4 359/1/4 360/1/4
f 360/1/4 359/1/4 361/1/4
f 362/1/4 363/1/4 364/1/4
f 364/1/4 363/1/4 365/1/4
f 366/1/4 367/1/4 368/1/4
f 368/1/4 367/1/4 369/1/4
f 370/1/4 371/1/4 372/1/4
f 372/1/4 371/1/4 373/1/4
f 374/1/4 375/1/4 378/1/4
f 378/1/4 375/1/4 379/1/4
f 376/1/4 377/1/4 380/1/4
f 380/1/4 377/1/4 381/1/4
f 382/1/4 383/1/4 384/1/4
f 384/1/4 383/1/4 385/1/4
f 386/1/4 387/1/4 388/1/4
f 388/1/4 387/1/4 389/1/4
f 389/1/4 387/1/4 391/1/4
f 390/1/4 391/1/4 393/1/4
f 393/1/4 391/1/4 394/1/4
f 392/1/4 393/1/4 394/1/4
f 391/1/4 387/1/4 395/1/4
f 394/1/4 391/1/4 395/1/4
f 392/1/4 394/1/4 398/1/4
f 398/1/4 394/1/4 399/1/4
f 396/1/4 397/1/4 400/1/4
f 400/1/4 397/1/4 401/1/4
f 402/1/4 403/1/4 404/1/4
f 404/1/4 403/1/4 405/1/4
f 406/1/4 407/1/4 408/1/4
f 408/1/4 407/1/4 409/1/4
f 410/1/4 411/1/4 412/1/4
f 410/1/4 412/1/4 414/1/4
f 412/1/4 413/1/4 414/1/4
f 414/1/4 413/1/4 415/1/4
f 415/1/4 413/1/4 416/1/4
f 416/1/4 413/1/4 417/1/4
f 418/1/4 419/1/4 420/1/4
f 418/1/4 420/1/4 422/1/4
f 420/1/4 421/1/4 422/1/4
f 422/1/4 421/1/4 423/1/4
f 418/1/4 422/1/4 425/1/4
f 425/1/4 422/1/4 426/1/4
f 424/1/4 425/1/4 428/1/4
f 427/1/4 428/1/4 430/1/4
f 429/1/4 430/1/4 433/1/4
f 428/1/4 425/1/4 434/1/4
f 433/1/4 430/1/4 434/1/4
f 430/1/4 428/1/4 434/1/4
f 431/1/4 432/1/4 435/1/4
f 435/1/4 432/1/4 436/1/4
f 437/1/4 438/1/4 439/1/4
f 439/1/4 438/1/4 440/1/4
f 440/1/4 438/1/4 441/1/4
f 441/1/4 438/1/4 442/1/4
f 442/1/4 438/1/4 443/1/4
f 443/1/4 438/1/4 444/1/4
f 445/1/4 446/1/4 447/1/4
f 445/1/4 447/1/4 449/1/4
f 447/1/4 448/1/4 449/1/4
f 449/1/4 448/1/4 450/1/4
f 450/1/4 448/1/4 451/1/4
f 451/1/4 452/1/4 454/1/4
f 450/1/4 451/1/4 454/1/4
f 454/1/4 452/1/4 455/1/4
f 455/1/4 452/1/4 456/1/4
f 453/1/4 454/1/4 457/1/4
f 454/1/4 455/1/4 457/1/4
f 457/1/4 455/1/4 458/1/4
f 453/1/4 457/1/4 459/1/4
f 459/1/4 457/1/4 460/1/4
f 453/1/4 459/1/4 461/1/4
f 461/1/4 459/1/4 462/1/4
f 463/1/4 464/1/4 465/1/4
f 465/1/4 464/1/4 466/1/4
f 470/1/5 468/1/5 467/1/5
f 471/1/5 468/1/5 470/1/5
f 474/1/5 470/1/5 469/1/5
f 474/1/5 472/1/5 471/1/5
f 474/1/5 471/1/5 470/1/5
f 475/1/5 472/1/5 474/1/5
f 478/1/5 474/1/5 473/1/5
f 478/1/5 476/1/5 475/1/5
f 478/1/5 475/1/5 474/1/5
f 479/1/5 476/1/5 478/1/5
f 481/1/5 478/1/5 477/1/5
f 481/1/5 480/1/5 479/1/5
f 481/1/5 479/1/5 478/1/5
f 482/1/5 480/1/5 481/1/5
f 483/1/5 480/1/5 482/1/5
f 484/1/5 480/1/5 483/1/5
f 485/1/5 483/1/5 482/1/5
f 486/1/5 483/1/5 485/1/5
f 487/1/5 483/1/5 486/1/5
f 488/1/5 483/1/5 487/1/5
f 489/1/5 487/1/5 486/1/5
f 490/1/5 487/1/5 489/1/5
f 491/1/5 487/1/5 490/1/5
f 492/1/5 487/1/5 491/1/5
f 493/1/5 491/1/5 490/1/5
f 494/1/5 491/1/5 493/1/5
f 495/1/6 496/1/6 499/1/6
f 499/1/6 496/1/6 500/1/6
f 497/1/6 498/1/6 501/1/6
f 501/1/6 498/1/6 502/1/6
f 503/1/6 504/1/6 507/1/6
f 507/1/6 504/1/6 508/1/6
f 505/1/6 506/1/6 509/1/6
f 509/1/6 506/1/6 510/1/6
f 511/1/6 512/1/6 513/1/6
f 513/1/6 512/1/6 514/1/6
f 515/1/6 516/1/6 521/1/6
f 521/1/6 516/1/6 522/1/6
f 517/1/6 518/1/6 523/1/6
f 523/1/6 518/1/6 524/1/6
f 519/1/6 520/1/6 525/1/6
f 525/1/6 520/1/6 526/1/6
f 527/1/6 528/1/6 529/1/6
f 529/1/6 528/1/6 530/1/6
f 531/1/6 532/1/6 535/1/6
f 535/1/6 532/1/6 536/1/6
f 533/1/6 534/1/6 539/1/6
f 539/1/6 534/1/6 540/1/6
f 537/1/6 538/1/6 541/1/6
f 537/1/6 541/1/6 543/1/6
f 541/1/6 542/1/6 543/1/6
f 543/1/6 542/1/6 544/1/6
f 545/1/6 546/1/6 547/1/6
f 547/1/6 546/1/6 548/1/6
f 551/1/6 552/1/6 553/1/6
f 553/1/6 552/1/6 554/1/6
f 549/1/6 550/1/6 555/1/6
f 555/1/6 550/1/6 556/1/6
f 557/1/6 558/1/6 561/1/6
f 561/1/6 558/1/6 562/1/6
f 559/1/6 560/1/6 563/1/6
f 563/1/6 560/1/6 564/1/6
f 565/1/6 566/1/6 567/1/6
f 567/1/6 566/1/6 568/1/6
f 569/1/6 570/1/6 571/1/6
f 571/1/6 570/1/6 572/1/6
f 573/1/6 574/1/6 577/1/6
f 577/1/6 574/1/6 578/1/6
f 575/1/6 576/1/6 579/1/6
f 579/1/6 576/1/6 580/1/6
f 581/1/6 582/1/6 585/1/6
f 585/1/6 582/1/6 586/1/6
f 583/1/6 584/1/6 587/1/6
f 587/1/6 584/1/6 588/1/6
f 589/1/6 590/1/6 593/1/6
f 593/1/6 590/1/6 594/1/6
f 591/1/6 592/1/6 595/1/6
f 595/1/6 592/1/6 596/1/6
f 599/1/6 600/1/6 601/1/6
f 601/1/6 600/1/6 602/1/6
f 597/1/6 598/1/6 603/1/6
f 603/1/6 598/1/6 604/1/6
f 605/1/6 606/1/6 609/1/6
f 609/1/6 606/1/6 610/1/6
f 607/1/6 608/1/6 611/1/6
f 611/1/6 608/1/6 612/1/6
f 613/1/6 614/1/6 615/1/6
f 615/1/6 614/1/6 616/1/6
f 617/1/6 618/1/6 619/1/6
f 619/1/6 618/1/6 620/1/6
f 621/1/6 622/1/6 625/1/6
f 625/1/6 622/1/6 626/1/6
f 623/1/6 624/1/6 627/1/6
f 627/1/6 624/1/6 628/1/6
f 629/1/6 630/1/6 631/1/6
f 631/1/6 630/1/6 632/1/6
f 633/1/6 634/1/6 635/1/6
f 635/1/6 634/1/6 636/1/6
f 637/1/6 638/1/6 639/1/6
f 639/1/6 638/1/6 640/1/6
f 641/1/6 642/1/6 643/1/6
f 643/1/6 642/1/6 644/1/6
f 645/1/6 646/1/6 648/1/6
f 648/1/6 646/1/6 649/1/6
f 647/1/6 648/1/6 650/1/6
f 650/1/6 648/1/6 651/1/6
f 652/1/6 653/1/6 654/1/6
f 654/1/6 653/1/6 655/1/6
f 656/1/6 657/1/6 659/1/6
f 658/1/6 659/1/6 664/1/6
f 659/1/6 657/1/6 665/1/6
f 664/1/6 659/1/6 665/1/6
f 660/1/6 661/1/6 666/1/6
f 666/1/6 661/1/6 667/1/6
f 662/1/6 663/1/6 668/1/6
f 668/1/6 663/1/6 669/1/6
f 670/1/6 671/1/6 672/1/6
f 672/1/6 671/1/6 673/1/6
f 674/1/6 675/1/6 677/1/6
f 676/1/6 677/1/6 678/1/6
f 677/1/6 675/1/6 679/1/6
f 678/1/6 677/1/6 679/1/6
f 679/1/6 675/1/6 680/1/6
f 676/1/6 678/1/6 682/1/6
f 682/1/6 678/1/6 683/1/6
f 680/1/6 681/1/6 684/1/6
f 679/1/6 680/1/6 684/1/6
f 684/1/6 681/1/6 685/1/6
f 685/1/6 681/1/6 686/1/6
f 686/1/6 681/1/6 687/1/6
f 688/1/6 689/1/6 692/1/6
f 690/1/6 691/1/6 693/1/6
f 688/1/6 692/1/6 694/1/6
f 692/1/6 693/1/6 694/1/6
f 693/1/6 691/1/6 695/1/6
f 694/1/6 693/1/6 695/1/6
f 696/1/6 697/1/6 698/1/6
f 698/1/6 697/1/6 699/1/6
