# MagicaVoxel @ Ephtracy

# group
o 

# material
mtllib hard_rock.mtl
usemtl palette

# normals
vn -1 0 0
vn 1 0 0
vn 0 0 1
vn 0 0 -1
vn 0 -1 0
vn 0 1 0

# texcoords
vt 0.306641 0.5
vt 0.482422 0.5
vt 0.986328 0.5

# verts
v -0.8 0 0.7
v -0.8 0 -0.4
v -0.8 1 -0.4
v -0.8 1 -0.8
v -0.8 1.3 0.7
v -0.8 1.3 0.2
v -0.8 1.6 0.2
v -0.8 1.6 -0.8
v -0.7 0 -0.4
v -0.7 0 -0.8
v -0.7 1 -0.4
v -0.7 1 -0.8
v -0.7 1.3 0.8
v -0.7 1.3 0.7
v -0.7 1.3 0.2
v -0.7 1.6 0.8
v -0.7 1.6 0.7
v -0.7 1.6 0.2
v -0.7 1.6 -0.6
v -0.7 2.3 0.7
v -0.7 2.3 0.2
v -0.7 2.7 -0.4
v -0.7 2.7 -0.6
v -0.7 2.8 0.2
v -0.7 2.8 -0.4
v -0.5 0 0.8
v -0.5 0 0.7
v -0.5 1.3 0.8
v -0.5 1.3 0.7
v -0.5 2.3 0.7
v -0.5 2.3 0.2
v -0.5 2.8 0.7
v -0.5 2.8 0.2
v -0.5 2.8 -0.4
v -0.5 3 0.2
v -0.5 3 -0.4
v -0.3 1.5 -0.6
v -0.3 1.5 -0.8
v -0.3 1.6 -0.7
v -0.3 1.6 -0.8
v -0.3 2.7 -0.6
v -0.3 2.8 0.4
v -0.3 2.8 0.2
v -0.3 2.8 -0.6
v -0.3 2.8 -0.7
v -0.3 3 0.4
v -0.3 3 0.2
v -0.1 2.7 -0.4
v -0.1 2.7 -0.6
v -0.1 2.8 -0.4
v -0.1 2.8 -0.6
v 0.3 2 0.7
v 0.3 2 0.6
v 0.3 2.2 0.7
v 0.3 2.2 0.6
v -0.7 1.5 -0.6
v -0.7 1.5 -0.8
v -0.7 1.6 -0.6
v -0.7 1.6 -0.8
v 0 2 0.7
v 0 2 0.6
v 0 2.8 0.7
v 0 2.8 0.6
v 0.1 1.1 0.8
v 0.1 1.1 0.7
v 0.1 1.6 0.8
v 0.1 1.6 0.7
v 0.3 2.8 -0.1
v 0.3 2.8 -0.4
v 0.3 3 -0.1
v 0.3 3 -0.4
v 0.4 1 -0.7
v 0.4 1 -0.8
v 0.4 1.6 -0.7
v 0.4 1.6 -0.8
v 0.4 2.2 0.6
v 0.4 2.2 0.5
v 0.4 2.8 0.6
v 0.4 2.8 0.5
v 0.5 2.8 0.4
v 0.5 2.8 -0.1
v 0.5 3 0.4
v 0.5 3 -0.1
v 0.6 0.4 -0.3
v 0.6 0.4 -0.4
v 0.6 1.6 0.7
v 0.6 1.6 0.3
v 0.6 1.6 -0.4
v 0.6 1.6 -0.7
v 0.6 1.8 -0.3
v 0.6 1.8 -0.4
v 0.6 2.2 0.7
v 0.6 2.2 0.5
v 0.6 2.2 0.3
v 0.6 2.8 -0.4
v 0.6 2.8 -0.7
v 0.7 1.3 0.6
v 0.7 1.3 0.2
v 0.7 1.6 0.6
v 0.7 1.6 0.3
v 0.7 1.6 0.2
v 0.7 1.6 -0.3
v 0.7 1.8 -0.3
v 0.7 1.8 -0.4
v 0.7 2.2 0.5
v 0.7 2.2 0.3
v 0.7 2.8 0.5
v 0.7 2.8 -0.4
v 0.8 0 0.8
v 0.8 0 -0.8
v 0.8 0.4 -0.3
v 0.8 0.4 -0.4
v 0.8 1 -0.7
v 0.8 1 -0.8
v 0.8 1.1 0.8
v 0.8 1.1 0.7
v 0.8 1.3 0.6
v 0.8 1.3 0.2
v 0.8 1.6 0.7
v 0.8 1.6 0.6
v 0.8 1.6 0.2
v 0.8 1.6 -0.3
v 0.8 1.6 -0.4
v 0.8 1.6 -0.7
v -0.7 1.3 0.8
v -0.7 1.6 0.8
v -0.5 0 0.8
v -0.5 1.3 0.8
v 0.1 1.1 0.8
v 0.1 1.6 0.8
v 0.8 0 0.8
v 0.8 1.1 0.8
v -0.8 0 0.7
v -0.8 1.3 0.7
v -0.7 1.3 0.7
v -0.7 1.6 0.7
v -0.7 2.3 0.7
v -0.5 0 0.7
v -0.5 1.3 0.7
v -0.5 2.3 0.7
v -0.5 2.8 0.7
v 0 2 0.7
v 0 2.8 0.7
v 0.1 1.1 0.7
v 0.1 1.6 0.7
v 0.3 2 0.7
v 0.3 2.2 0.7
v 0.6 1.6 0.7
v 0.6 2.2 0.7
v 0.8 1.1 0.7
v 0.8 1.6 0.7
v 0 2 0.6
v 0 2.8 0.6
v 0.3 2 0.6
v 0.3 2.2 0.6
v 0.4 2.2 0.6
v 0.4 2.8 0.6
v 0.4 2.2 0.5
v 0.4 2.8 0.5
v 0.6 2.2 0.5
v 0.7 2.2 0.5
v 0.7 2.8 0.5
v -0.3 2.8 0.4
v -0.3 3 0.4
v 0.5 2.8 0.4
v 0.5 3 0.4
v 0.6 1.6 0.3
v 0.6 2.2 0.3
v 0.7 1.6 0.3
v 0.7 2.2 0.3
v -0.8 1.3 0.2
v -0.8 1.6 0.2
v -0.7 1.3 0.2
v -0.7 1.6 0.2
v -0.7 2.3 0.2
v -0.7 2.8 0.2
v -0.5 2.3 0.2
v -0.5 2.8 0.2
v -0.5 3 0.2
v -0.3 2.8 0.2
v -0.3 3 0.2
v 0.7 1.3 0.2
v 0.7 1.6 0.2
v 0.8 1.3 0.2
v 0.8 1.6 0.2
v 0.6 0.4 -0.4
v 0.6 1.6 -0.4
v 0.8 0.4 -0.4
v 0.8 1.6 -0.4
v -0.3 2.7 -0.6
v -0.3 2.8 -0.6
v -0.1 2.7 -0.6
v -0.1 2.8 -0.6
v 0.7 1.3 0.6
v 0.7 1.6 0.6
v 0.8 1.3 0.6
v 0.8 1.6 0.6
v 0.3 2.8 -0.1
v 0.3 3 -0.1
v 0.5 2.8 -0.1
v 0.5 3 -0.1
v 0.6 0.4 -0.3
v 0.6 1.8 -0.3
v 0.7 1.6 -0.3
v 0.7 1.8 -0.3
v 0.8 0.4 -0.3
v 0.8 1.6 -0.3
v -0.8 0 -0.4
v -0.8 1 -0.4
v -0.7 0 -0.4
v -0.7 1 -0.4
v -0.7 2.7 -0.4
v -0.7 2.8 -0.4
v -0.5 2.8 -0.4
v -0.5 3 -0.4
v -0.1 2.7 -0.4
v -0.1 2.8 -0.4
v 0.3 2.8 -0.4
v 0.3 3 -0.4
v 0.6 1.8 -0.4
v 0.6 2.8 -0.4
v 0.7 1.8 -0.4
v 0.7 2.8 -0.4
v -0.7 1.5 -0.6
v -0.7 1.6 -0.6
v -0.7 2.7 -0.6
v -0.3 1.5 -0.6
v -0.3 2.7 -0.6
v -0.3 1.6 -0.7
v -0.3 2.8 -0.7
v 0.4 1 -0.7
v 0.4 1.6 -0.7
v 0.6 1.6 -0.7
v 0.6 2.8 -0.7
v 0.8 1 -0.7
v 0.8 1.6 -0.7
v -0.8 1 -0.8
v -0.8 1.6 -0.8
v -0.7 0 -0.8
v -0.7 1 -0.8
v -0.7 1.5 -0.8
v -0.7 1.6 -0.8
v -0.3 1.5 -0.8
v -0.3 1.6 -0.8
v 0.4 1 -0.8
v 0.4 1.6 -0.8
v 0.8 0 -0.8
v 0.8 1 -0.8
v -0.5 0 0.8
v 0.8 0 0.8
v -0.8 0 0.7
v -0.5 0 0.7
v -0.7 0 0.6
v 0.7 0 0.6
v -0.8 0 -0.4
v -0.7 0 -0.4
v -0.6 0 -0.4
v -0.6 0 -0.6
v 0.7 0 -0.6
v -0.7 0 -0.8
v 0.8 0 -0.8
v -0.8 1 -0.4
v -0.7 1 -0.4
v -0.8 1 -0.8
v -0.7 1 -0.8
v -0.7 1.3 0.8
v -0.5 1.3 0.8
v -0.7 1.3 0.7
v -0.5 1.3 0.7
v 0.6 1.8 -0.3
v 0.7 1.8 -0.3
v 0.6 1.8 -0.4
v 0.7 1.8 -0.4
v 0.6 2.2 0.5
v 0.7 2.2 0.5
v 0.6 2.2 0.3
v 0.7 2.2 0.3
v 0.6 0.4 -0.3
v 0.8 0.4 -0.3
v 0.6 0.4 -0.4
v 0.8 0.4 -0.4
v 0.4 1 -0.7
v 0.8 1 -0.7
v 0.4 1 -0.8
v 0.8 1 -0.8
v 0.1 1.1 0.8
v 0.8 1.1 0.8
v 0.1 1.1 0.7
v 0.8 1.1 0.7
v -0.8 1.3 0.7
v -0.7 1.3 0.7
v 0.7 1.3 0.6
v 0.8 1.3 0.6
v -0.8 1.3 0.2
v -0.7 1.3 0.2
v 0.7 1.3 0.2
v 0.8 1.3 0.2
v -0.7 1.5 -0.6
v -0.3 1.5 -0.6
v -0.7 1.5 -0.8
v -0.3 1.5 -0.8
v -0.7 1.6 0.8
v 0.1 1.6 0.8
v -0.7 1.6 0.7
v 0.1 1.6 0.7
v 0.6 1.6 0.7
v 0.8 1.6 0.7
v 0.7 1.6 0.6
v 0.8 1.6 0.6
v 0.6 1.6 0.3
v 0.7 1.6 0.3
v -0.8 1.6 0.2
v -0.7 1.6 0.2
v 0.7 1.6 0.2
v 0.8 1.6 0.2
v 0.7 1.6 -0.3
v 0.8 1.6 -0.3
v 0.6 1.6 -0.4
v 0.8 1.6 -0.4
v -0.7 1.6 -0.6
v -0.3 1.6 -0.7
v 0.4 1.6 -0.7
v 0.6 1.6 -0.7
v 0.8 1.6 -0.7
v -0.8 1.6 -0.8
v -0.7 1.6 -0.8
v -0.3 1.6 -0.8
v 0.4 1.6 -0.8
v 0 2 0.7
v 0.3 2 0.7
v 0 2 0.6
v 0.3 2 0.6
v 0.3 2.2 0.7
v 0.6 2.2 0.7
v 0.3 2.2 0.6
v 0.4 2.2 0.6
v 0.4 2.2 0.5
v 0.6 2.2 0.5
v -0.7 2.3 0.7
v -0.5 2.3 0.7
v -0.7 2.3 0.2
v -0.5 2.3 0.2
v -0.7 2.7 -0.4
v -0.1 2.7 -0.4
v -0.7 2.7 -0.6
v -0.3 2.7 -0.6
v -0.1 2.7 -0.6
v -0.5 2.8 0.7
v 0 2.8 0.7
v 0 2.8 0.6
v 0.4 2.8 0.6
v 0.4 2.8 0.5
v 0.7 2.8 0.5
v -0.3 2.8 0.4
v 0.5 2.8 0.4
v -0.7 2.8 0.2
v -0.5 2.8 0.2
v -0.3 2.8 0.2
v 0.3 2.8 -0.1
v 0.5 2.8 -0.1
v -0.7 2.8 -0.4
v -0.5 2.8 -0.4
v -0.1 2.8 -0.4
v 0.3 2.8 -0.4
v 0.6 2.8 -0.4
v 0.7 2.8 -0.4
v -0.3 2.8 -0.6
v -0.1 2.8 -0.6
v -0.3 2.8 -0.7
v 0.6 2.8 -0.7
v -0.3 3 0.4
v 0.5 3 0.4
v -0.5 3 0.2
v -0.3 3 0.2
v 0.3 3 -0.1
v 0.5 3 -0.1
v -0.5 3 -0.4
v 0.3 3 -0.4

# faces
f 3/3/1 2/3/1 1/3/1
f 5/3/1 3/3/1 1/3/1
f 5/3/1 4/3/1 3/3/1
f 6/3/1 4/3/1 5/3/1
f 7/3/1 4/3/1 6/3/1
f 8/3/1 4/3/1 7/3/1
f 11/3/1 10/3/1 9/3/1
f 12/3/1 10/3/1 11/3/1
f 16/3/1 14/3/1 13/3/1
f 16/3/1 15/3/1 14/3/1
f 17/3/1 15/3/1 16/3/1
f 18/3/1 15/3/1 17/3/1
f 20/3/1 19/3/1 18/3/1
f 20/3/1 18/3/1 17/3/1
f 21/3/1 19/3/1 20/3/1
f 22/3/1 19/3/1 21/3/1
f 23/3/1 19/3/1 22/3/1
f 24/3/1 22/3/1 21/3/1
f 25/3/1 22/3/1 24/3/1
f 28/3/1 27/3/1 26/3/1
f 29/3/1 27/3/1 28/3/1
f 32/3/1 31/3/1 30/3/1
f 33/3/1 31/3/1 32/3/1
f 35/3/1 34/3/1 33/3/1
f 36/3/1 34/3/1 35/3/1
f 39/3/1 38/3/1 37/3/1
f 40/3/1 38/3/1 39/3/1
f 41/3/1 39/3/1 37/3/1
f 44/3/1 39/3/1 41/3/1
f 45/3/1 39/3/1 44/3/1
f 46/3/1 43/3/1 42/3/1
f 47/3/1 43/3/1 46/3/1
f 50/3/1 49/3/1 48/3/1
f 51/3/1 49/3/1 50/3/1
f 54/3/1 53/3/1 52/3/1
f 55/3/1 53/3/1 54/3/1
f 56/3/2 57/3/2 58/3/2
f 58/3/2 57/3/2 59/3/2
f 60/3/2 61/3/2 62/3/2
f 62/3/2 61/3/2 63/3/2
f 64/3/2 65/3/2 66/3/2
f 66/3/2 65/3/2 67/3/2
f 68/3/2 69/3/2 70/3/2
f 70/3/2 69/3/2 71/3/2
f 72/3/2 73/3/2 74/3/2
f 74/3/2 73/3/2 75/3/2
f 76/3/2 77/3/2 78/3/2
f 78/3/2 77/3/2 79/3/2
f 80/3/2 81/3/2 82/3/2
f 82/3/2 81/3/2 83/3/2
f 84/3/2 85/3/2 88/3/2
f 84/3/2 88/3/2 90/3/2
f 88/3/2 89/3/2 90/3/2
f 90/3/2 89/3/2 91/3/2
f 86/3/2 87/3/2 92/3/2
f 92/3/2 87/3/2 93/3/2
f 93/3/2 87/3/2 94/3/2
f 91/3/2 89/3/2 95/3/2
f 95/3/2 89/3/2 96/3/2
f 97/3/2 98/3/2 99/3/2
f 99/3/2 98/3/2 100/3/2
f 100/3/2 98/3/2 101/3/2
f 101/3/2 102/3/2 103/3/2
f 100/3/2 101/3/2 103/3/2
f 100/3/2 103/3/2 106/3/2
f 103/3/2 104/3/2 106/3/2
f 105/3/2 106/3/2 107/3/2
f 106/3/2 104/3/2 108/3/2
f 107/3/2 106/3/2 108/3/2
f 109/3/2 110/3/2 111/3/2
f 111/3/2 110/3/2 112/3/2
f 112/3/2 110/3/2 113/3/2
f 113/3/2 110/3/2 114/3/2
f 109/3/2 111/3/2 115/3/2
f 115/3/2 111/3/2 116/3/2
f 116/3/2 111/3/2 117/3/2
f 117/3/2 111/3/2 118/3/2
f 116/3/2 117/3/2 119/3/2
f 119/3/2 117/3/2 120/3/2
f 118/3/2 111/3/2 121/3/2
f 121/3/2 111/3/2 122/3/2
f 112/3/2 113/3/2 123/3/2
f 123/3/2 113/3/2 124/3/2
f 128/3/3 126/3/3 125/3/3
f 129/3/3 128/3/3 127/3/3
f 130/3/3 126/3/3 128/3/3
f 130/3/3 128/3/3 129/3/3
f 131/3/3 129/3/3 127/3/3
f 132/3/3 129/3/3 131/3/3
f 135/3/3 134/3/3 133/3/3
f 138/3/3 135/3/3 133/3/3
f 139/3/3 135/3/3 138/3/3
f 140/3/3 137/3/3 136/3/3
f 142/3/3 141/3/3 140/3/3
f 142/3/3 140/3/3 136/3/3
f 143/3/3 141/3/3 142/3/3
f 145/3/3 142/3/3 136/3/3
f 146/3/3 142/3/3 145/3/3
f 146/3/3 145/3/3 144/3/3
f 148/3/3 146/3/3 144/3/3
f 148/3/3 147/3/3 146/3/3
f 149/3/3 147/3/3 148/3/3
f 150/3/3 148/3/3 144/3/3
f 151/3/3 148/3/3 150/3/3
f 154/3/3 153/3/3 152/3/3
f 155/3/3 153/3/3 154/3/3
f 156/3/3 153/3/3 155/3/3
f 157/3/3 153/3/3 156/3/3
f 160/3/3 159/3/3 158/3/3
f 161/3/3 159/3/3 160/3/3
f 162/3/3 159/3/3 161/3/3
f 165/3/3 164/3/3 163/3/3
f 166/3/3 164/3/3 165/3/3
f 169/3/3 168/3/3 167/3/3
f 170/3/3 168/3/3 169/3/3
f 173/3/3 172/3/3 171/3/3
f 174/3/3 172/3/3 173/3/3
f 177/3/3 176/3/3 175/3/3
f 178/3/3 176/3/3 177/3/3
f 180/3/3 179/3/3 178/3/3
f 181/3/3 179/3/3 180/3/3
f 184/3/3 183/3/3 182/3/3
f 185/3/3 183/3/3 184/3/3
f 188/3/3 187/3/3 186/3/3
f 189/3/3 187/3/3 188/3/3
f 192/3/3 191/3/3 190/3/3
f 193/3/3 191/3/3 192/3/3
f 194/3/4 195/3/4 196/3/4
f 196/3/4 195/3/4 197/3/4
f 198/3/4 199/3/4 200/3/4
f 200/3/4 199/3/4 201/3/4
f 202/3/4 203/3/4 204/3/4
f 204/3/4 203/3/4 205/3/4
f 202/3/4 204/3/4 206/3/4
f 206/3/4 204/3/4 207/3/4
f 208/3/4 209/3/4 210/3/4
f 210/3/4 209/3/4 211/3/4
f 212/3/4 213/3/4 214/3/4
f 212/3/4 214/3/4 216/3/4
f 214/3/4 215/3/4 216/3/4
f 216/3/4 215/3/4 217/3/4
f 217/3/4 215/3/4 218/3/4
f 218/3/4 215/3/4 219/3/4
f 220/3/4 221/3/4 222/3/4
f 222/3/4 221/3/4 223/3/4
f 224/3/4 225/3/4 227/3/4
f 225/3/4 226/3/4 227/3/4
f 227/3/4 226/3/4 228/3/4
f 229/3/4 230/3/4 232/3/4
f 232/3/4 230/3/4 233/3/4
f 231/3/4 232/3/4 233/3/4
f 233/3/4 230/3/4 234/3/4
f 231/3/4 233/3/4 235/3/4
f 235/3/4 233/3/4 236/3/4
f 237/3/4 238/3/4 240/3/4
f 240/3/4 238/3/4 241/3/4
f 241/3/4 238/3/4 242/3/4
f 239/3/4 240/3/4 243/3/4
f 240/3/4 241/3/4 243/3/4
f 239/3/4 243/3/4 245/3/4
f 243/3/4 244/3/4 245/3/4
f 245/3/4 244/3/4 246/3/4
f 239/3/4 245/3/4 247/3/4
f 247/3/4 245/3/4 248/3/4
f 252/3/5 250/3/5 249/3/5
f 253/3/5 252/3/5 251/3/5
f 254/3/5 250/3/5 252/3/5
f 254/3/5 252/3/5 253/3/5
f 255/3/5 253/3/5 251/3/5
f 256/1/5 254/1/5 253/1/5
f 256/3/5 253/3/5 255/3/5
f 257/1/5 254/1/5 256/1/5
f 258/1/5 254/1/5 257/1/5
f 258/3/5 257/3/5 256/3/5
f 259/3/5 250/3/5 254/3/5
f 259/1/5 254/1/5 258/1/5
f 260/3/5 258/3/5 256/3/5
f 260/3/5 259/3/5 258/3/5
f 261/3/5 250/3/5 259/3/5
f 261/3/5 259/3/5 260/3/5
f 264/3/5 263/3/5 262/3/5
f 265/3/5 263/3/5 264/3/5
f 268/3/5 267/3/5 266/3/5
f 269/3/5 267/3/5 268/3/5
f 272/3/5 271/3/5 270/3/5
f 273/3/5 271/3/5 272/3/5
f 276/3/5 275/3/5 274/3/5
f 277/3/5 275/3/5 276/3/5
f 278/3/6 279/3/6 280/3/6
f 280/3/6 279/3/6 281/3/6
f 282/3/6 283/3/6 284/3/6
f 284/3/6 283/3/6 285/3/6
f 286/3/6 287/3/6 288/3/6
f 288/3/6 287/3/6 289/3/6
f 290/3/6 291/3/6 294/3/6
f 294/3/6 291/3/6 295/3/6
f 292/3/6 293/3/6 296/3/6
f 296/3/6 293/3/6 297/3/6
f 298/3/6 299/3/6 300/3/6
f 300/3/6 299/3/6 301/3/6
f 302/3/6 303/3/6 304/3/6
f 304/3/6 303/3/6 305/3/6
f 306/3/6 307/3/6 308/3/6
f 308/3/6 307/3/6 309/3/6
f 306/3/6 308/3/6 310/3/6
f 310/3/6 308/3/6 311/3/6
f 314/3/6 315/3/6 316/3/6
f 316/3/6 315/3/6 317/3/6
f 312/3/6 313/3/6 320/3/6
f 318/3/6 319/3/6 323/3/6
f 323/3/6 319/3/6 324/3/6
f 312/3/6 320/3/6 325/3/6
f 325/3/6 320/3/6 326/3/6
f 321/3/6 322/3/6 327/3/6
f 327/3/6 322/3/6 328/3/6
f 329/3/6 330/3/6 331/3/6
f 331/3/6 330/3/6 332/3/6
f 333/3/6 334/3/6 335/3/6
f 335/3/6 334/3/6 336/3/6
f 336/3/6 334/3/6 337/3/6
f 337/3/6 334/3/6 338/3/6
f 339/3/6 340/3/6 341/3/6
f 341/3/6 340/3/6 342/3/6
f 343/3/6 344/3/6 345/3/6
f 345/3/6 344/3/6 346/3/6
f 346/3/6 344/3/6 347/3/6
f 348/3/6 349/3/6 350/3/6
f 350/3/6 351/3/6 352/3/6
f 348/3/6 350/3/6 354/3/6
f 352/3/6 353/3/6 354/3/6
f 350/3/6 352/3/6 354/3/6
f 354/3/6 353/3/6 355/3/6
f 348/3/6 354/3/6 357/3/6
f 357/3/6 354/3/6 358/3/6
f 355/3/6 353/3/6 360/3/6
f 356/3/6 357/3/6 361/3/6
f 361/3/6 357/3/6 362/3/6
f 359/3/6 360/3/6 364/3/6
f 360/3/6 353/3/6 365/3/6
f 364/3/6 360/3/6 365/3/6
f 365/3/6 353/3/6 366/3/6
f 363/3/6 364/3/6 368/3/6
f 364/3/6 365/3/6 368/3/6
f 367/3/6 368/3/6 369/3/6
f 368/3/6 365/3/6 370/3/6
f 369/3/6 368/3/6 370/3/6
f 371/3/6 372/3/6 374/3/6
f 374/3/6 372/3/6 375/3/6
f 373/3/6 374/3/6 375/3/6
f 375/3/6 372/3/6 376/3/6
f 373/3/6 375/3/6 377/3/6
f 377/3/6 375/3/6 378/3/6
