# MagicaVoxel @ Ephtracy

# group
o 

# material
mtllib result_monkey.mtl
usemtl palette

# normals
vn -1 0 0
vn 1 0 0
vn 0 0 1
vn 0 0 -1
vn 0 -1 0
vn 0 1 0

# texcoords
vt 0.306641 0.5
vt 0.310547 0.5
vt 0.314453 0.5

# verts
v -0.8 0 0.3
v -0.8 0 -0.3
v -0.8 0.1 0.3
v -0.8 0.1 -0.3
v -0.7 0 0.5
v -0.7 0 0.3
v -0.7 0 -0.3
v -0.7 0 -0.5
v -0.7 0.1 0.5
v -0.7 0.1 0.4
v -0.7 0.1 0.3
v -0.7 0.1 -0.3
v -0.7 0.1 -0.5
v -0.7 0.2 0.4
v -0.7 0.2 -0.3
v -0.6 0 0.6
v -0.6 0 0.5
v -0.6 0 -0.5
v -0.6 0 -0.6
v -0.6 0.1 0.6
v -0.6 0.1 0.5
v -0.6 0.1 0.4
v -0.6 0.1 -0.3
v -0.6 0.1 -0.5
v -0.6 0.1 -0.6
v -0.6 0.2 0.5
v -0.6 0.2 0.4
v -0.6 0.2 -0.3
v -0.6 0.2 -0.5
v -0.5 0 0.7
v -0.5 0 0.6
v -0.5 0 -0.6
v -0.5 0 -0.7
v -0.5 0.1 0.7
v -0.5 0.1 0.6
v -0.5 0.1 0.5
v -0.5 0.1 -0.5
v -0.5 0.1 -0.6
v -0.5 0.1 -0.7
v -0.5 0.2 0.6
v -0.5 0.2 0.5
v -0.5 0.2 -0.5
v -0.5 0.2 -0.6
v -0.4 0.1 0.7
v -0.4 0.1 0.6
v -0.4 0.2 0.7
v -0.4 0.2 0.6
v -0.3 0 0.8
v -0.3 0 0.7
v -0.3 0 -0.7
v -0.3 0 -0.8
v -0.3 0.1 0.8
v -0.3 0.1 0.7
v -0.3 0.1 -0.6
v -0.3 0.1 -0.7
v -0.3 0.1 -0.8
v -0.3 0.2 -0.6
v -0.3 0.2 -0.7
v -0.3 0.5 0.1
v -0.3 0.5 -0.1
v -0.3 0.6 0.1
v -0.3 0.6 -0.1
v -0.2 0.1 0.1
v -0.2 0.1 -0.1
v -0.2 0.5 0.1
v -0.2 0.5 -0.1
v -0.1 0.1 -0.2
v -0.1 0.1 -0.3
v -0.1 0.3 -0.1
v -0.1 0.3 -0.2
v -0.1 0.4 -0.1
v -0.1 0.4 -0.3
v 0.1 0.5 0.1
v 0.1 0.5 -0.1
v 0.1 0.6 0.1
v 0.1 0.6 -0.1
v 0.2 0.1 0.5
v 0.2 0.1 0.4
v 0.2 0.1 -0.4
v 0.2 0.1 -0.5
v 0.2 0.2 0.5
v 0.2 0.2 0.4
v 0.2 0.2 -0.4
v 0.2 0.2 -0.5
v 0.3 0.1 0.4
v 0.3 0.1 0.3
v 0.3 0.1 -0.3
v 0.3 0.1 -0.4
v 0.3 0.2 0.4
v 0.3 0.2 0.3
v 0.3 0.2 -0.3
v 0.3 0.2 -0.4
v 0.4 0.1 0.3
v 0.4 0.1 0.2
v 0.4 0.1 -0.2
v 0.4 0.1 -0.3
v 0.4 0.2 0.3
v 0.4 0.2 0.2
v 0.4 0.2 -0.2
v 0.4 0.2 -0.3
v 0.5 0.1 0.2
v 0.5 0.1 -0.2
v 0.5 0.2 0.2
v 0.5 0.2 -0.2
v -0.5 0.1 0.2
v -0.5 0.1 -0.2
v -0.5 0.2 0.2
v -0.5 0.2 -0.2
v -0.4 0.1 0.3
v -0.4 0.1 0.2
v -0.4 0.1 -0.2
v -0.4 0.1 -0.3
v -0.4 0.2 0.3
v -0.4 0.2 0.2
v -0.4 0.2 -0.2
v -0.4 0.2 -0.3
v -0.3 0.1 0.4
v -0.3 0.1 0.3
v -0.3 0.1 -0.3
v -0.3 0.1 -0.4
v -0.3 0.2 0.4
v -0.3 0.2 0.3
v -0.3 0.2 -0.3
v -0.3 0.2 -0.4
v -0.2 0.1 0.5
v -0.2 0.1 0.4
v -0.2 0.1 -0.4
v -0.2 0.1 -0.5
v -0.2 0.2 0.5
v -0.2 0.2 0.4
v -0.2 0.2 -0.4
v -0.2 0.2 -0.5
v -0.1 0.5 0.1
v -0.1 0.5 -0.1
v -0.1 0.6 0.1
v -0.1 0.6 -0.1
v 0 0.1 -0.2
v 0 0.1 -0.3
v 0 0.3 -0.1
v 0 0.3 -0.2
v 0 0.4 -0.1
v 0 0.4 -0.3
v 0.2 0.1 0.1
v 0.2 0.1 -0.1
v 0.2 0.5 0.1
v 0.2 0.5 -0.1
v 0.3 0 0.8
v 0.3 0 0.7
v 0.3 0 -0.7
v 0.3 0 -0.8
v 0.3 0.1 0.8
v 0.3 0.1 0.7
v 0.3 0.1 0.6
v 0.3 0.1 -0.6
v 0.3 0.1 -0.7
v 0.3 0.1 -0.8
v 0.3 0.2 0.7
v 0.3 0.2 0.6
v 0.3 0.2 -0.6
v 0.3 0.2 -0.7
v 0.3 0.5 0.1
v 0.3 0.5 -0.1
v 0.3 0.6 0.1
v 0.3 0.6 -0.1
v 0.5 0 0.7
v 0.5 0 0.6
v 0.5 0 -0.6
v 0.5 0 -0.7
v 0.5 0.1 0.7
v 0.5 0.1 0.6
v 0.5 0.1 0.5
v 0.5 0.1 -0.5
v 0.5 0.1 -0.6
v 0.5 0.1 -0.7
v 0.5 0.2 0.6
v 0.5 0.2 0.5
v 0.5 0.2 -0.5
v 0.5 0.2 -0.6
v 0.6 0 0.6
v 0.6 0 0.5
v 0.6 0 -0.5
v 0.6 0 -0.6
v 0.6 0.1 0.6
v 0.6 0.1 0.5
v 0.6 0.1 0.3
v 0.6 0.1 -0.3
v 0.6 0.1 -0.5
v 0.6 0.1 -0.6
v 0.6 0.2 0.5
v 0.6 0.2 0.3
v 0.6 0.2 -0.3
v 0.6 0.2 -0.5
v 0.7 0 0.5
v 0.7 0 0.3
v 0.7 0 -0.3
v 0.7 0 -0.5
v 0.7 0.1 0.5
v 0.7 0.1 0.3
v 0.7 0.1 -0.3
v 0.7 0.1 -0.5
v 0.7 0.2 0.3
v 0.7 0.2 -0.3
v 0.8 0 0.3
v 0.8 0 -0.3
v 0.8 0.1 0.3
v 0.8 0.1 -0.3
v -0.3 0 0.8
v -0.3 0.1 0.8
v 0.3 0 0.8
v 0.3 0.1 0.8
v -0.5 0 0.7
v -0.5 0.1 0.7
v -0.4 0.1 0.7
v -0.4 0.2 0.7
v -0.3 0 0.7
v -0.3 0.1 0.7
v 0.3 0 0.7
v 0.3 0.1 0.7
v 0.3 0.2 0.7
v 0.5 0 0.7
v 0.5 0.1 0.7
v -0.6 0 0.6
v -0.6 0.1 0.6
v -0.5 0 0.6
v -0.5 0.1 0.6
v -0.5 0.2 0.6
v -0.4 0.1 0.6
v -0.4 0.2 0.6
v 0.3 0.1 0.6
v 0.3 0.2 0.6
v 0.5 0 0.6
v 0.5 0.1 0.6
v 0.5 0.2 0.6
v 0.6 0 0.6
v 0.6 0.1 0.6
v -0.7 0 0.5
v -0.7 0.1 0.5
v -0.6 0 0.5
v -0.6 0.1 0.5
v -0.6 0.2 0.5
v -0.5 0.1 0.5
v -0.5 0.2 0.5
v 0.5 0.1 0.5
v 0.5 0.2 0.5
v 0.6 0 0.5
v 0.6 0.1 0.5
v 0.6 0.2 0.5
v 0.7 0 0.5
v 0.7 0.1 0.5
v -0.7 0.1 0.4
v -0.7 0.2 0.4
v -0.6 0.1 0.4
v -0.6 0.2 0.4
v -0.8 0 0.3
v -0.8 0.1 0.3
v -0.7 0 0.3
v -0.7 0.1 0.3
v 0.6 0.1 0.3
v 0.6 0.2 0.3
v 0.7 0 0.3
v 0.7 0.1 0.3
v 0.7 0.2 0.3
v 0.8 0 0.3
v 0.8 0.1 0.3
v -0.3 0.5 0.1
v -0.3 0.6 0.1
v -0.2 0.1 0.1
v -0.2 0.5 0.1
v -0.1 0.2 0.1
v -0.1 0.4 0.1
v -0.1 0.5 0.1
v -0.1 0.6 0.1
v 0.1 0.2 0.1
v 0.1 0.4 0.1
v 0.1 0.5 0.1
v 0.1 0.6 0.1
v 0.2 0.1 0.1
v 0.2 0.5 0.1
v 0.3 0.5 0.1
v 0.3 0.6 0.1
v -0.5 0.1 -0.2
v -0.5 0.2 -0.2
v -0.4 0.1 -0.2
v -0.4 0.2 -0.2
v -0.1 0.1 -0.2
v -0.1 0.3 -0.2
v 0 0.1 -0.2
v 0 0.3 -0.2
v 0.4 0.1 -0.2
v 0.4 0.2 -0.2
v 0.5 0.1 -0.2
v 0.5 0.2 -0.2
v -0.4 0.1 -0.3
v -0.4 0.2 -0.3
v -0.3 0.1 -0.3
v -0.3 0.2 -0.3
v 0.3 0.1 -0.3
v 0.3 0.2 -0.3
v 0.4 0.1 -0.3
v 0.4 0.2 -0.3
v -0.3 0.1 -0.4
v -0.3 0.2 -0.4
v -0.2 0.1 -0.4
v -0.2 0.2 -0.4
v 0.2 0.1 -0.4
v 0.2 0.2 -0.4
v 0.3 0.1 -0.4
v 0.3 0.2 -0.4
v -0.2 0.1 -0.5
v -0.2 0.2 -0.5
v 0.2 0.1 -0.5
v 0.2 0.2 -0.5
v -0.2 0.1 0.5
v -0.2 0.2 0.5
v 0.2 0.1 0.5
v 0.2 0.2 0.5
v -0.3 0.1 0.4
v -0.3 0.2 0.4
v -0.2 0.1 0.4
v -0.2 0.2 0.4
v 0.2 0.1 0.4
v 0.2 0.2 0.4
v 0.3 0.1 0.4
v 0.3 0.2 0.4
v -0.4 0.1 0.3
v -0.4 0.2 0.3
v -0.3 0.1 0.3
v -0.3 0.2 0.3
v 0.3 0.1 0.3
v 0.3 0.2 0.3
v 0.4 0.1 0.3
v 0.4 0.2 0.3
v -0.5 0.1 0.2
v -0.5 0.2 0.2
v -0.4 0.1 0.2
v -0.4 0.2 0.2
v 0.4 0.1 0.2
v 0.4 0.2 0.2
v 0.5 0.1 0.2
v 0.5 0.2 0.2
v -0.3 0.5 -0.1
v -0.3 0.6 -0.1
v -0.2 0.1 -0.1
v -0.2 0.5 -0.1
v -0.1 0.3 -0.1
v -0.1 0.4 -0.1
v -0.1 0.5 -0.1
v -0.1 0.6 -0.1
v 0 0.3 -0.1
v 0 0.4 -0.1
v 0.1 0.5 -0.1
v 0.1 0.6 -0.1
v 0.2 0.1 -0.1
v 0.2 0.5 -0.1
v 0.3 0.5 -0.1
v 0.3 0.6 -0.1
v -0.8 0 -0.3
v -0.8 0.1 -0.3
v -0.7 0 -0.3
v -0.7 0.1 -0.3
v -0.7 0.2 -0.3
v -0.6 0.1 -0.3
v -0.6 0.2 -0.3
v -0.1 0.1 -0.3
v -0.1 0.4 -0.3
v 0 0.1 -0.3
v 0 0.4 -0.3
v 0.6 0.1 -0.3
v 0.6 0.2 -0.3
v 0.7 0 -0.3
v 0.7 0.1 -0.3
v 0.7 0.2 -0.3
v 0.8 0 -0.3
v 0.8 0.1 -0.3
v -0.7 0 -0.5
v -0.7 0.1 -0.5
v -0.6 0 -0.5
v -0.6 0.1 -0.5
v -0.6 0.2 -0.5
v -0.5 0.1 -0.5
v -0.5 0.2 -0.5
v 0.5 0.1 -0.5
v 0.5 0.2 -0.5
v 0.6 0 -0.5
v 0.6 0.1 -0.5
v 0.6 0.2 -0.5
v 0.7 0 -0.5
v 0.7 0.1 -0.5
v -0.6 0 -0.6
v -0.6 0.1 -0.6
v -0.5 0 -0.6
v -0.5 0.1 -0.6
v -0.5 0.2 -0.6
v -0.3 0.1 -0.6
v -0.3 0.2 -0.6
v 0.3 0.1 -0.6
v 0.3 0.2 -0.6
v 0.5 0 -0.6
v 0.5 0.1 -0.6
v 0.5 0.2 -0.6
v 0.6 0 -0.6
v 0.6 0.1 -0.6
v -0.5 0 -0.7
v -0.5 0.1 -0.7
v -0.3 0 -0.7
v -0.3 0.1 -0.7
v -0.3 0.2 -0.7
v 0.3 0 -0.7
v 0.3 0.1 -0.7
v 0.3 0.2 -0.7
v 0.5 0 -0.7
v 0.5 0.1 -0.7
v -0.3 0 -0.8
v -0.3 0.1 -0.8
v 0.3 0 -0.8
v 0.3 0.1 -0.8
v -0.3 0 0.8
v 0.3 0 0.8
v -0.5 0 0.7
v -0.3 0 0.7
v 0.3 0 0.7
v 0.5 0 0.7
v -0.6 0 0.6
v -0.5 0 0.6
v 0.5 0 0.6
v 0.6 0 0.6
v -0.7 0 0.5
v -0.6 0 0.5
v 0.6 0 0.5
v 0.7 0 0.5
v -0.8 0 0.3
v -0.7 0 0.3
v 0.7 0 0.3
v 0.8 0 0.3
v -0.8 0 -0.3
v -0.7 0 -0.3
v 0.7 0 -0.3
v 0.8 0 -0.3
v -0.7 0 -0.5
v -0.6 0 -0.5
v 0.6 0 -0.5
v 0.7 0 -0.5
v -0.6 0 -0.6
v -0.5 0 -0.6
v 0.5 0 -0.6
v 0.6 0 -0.6
v -0.5 0 -0.7
v -0.3 0 -0.7
v 0.3 0 -0.7
v 0.5 0 -0.7
v -0.3 0 -0.8
v 0.3 0 -0.8
v -0.1 0.3 -0.1
v 0 0.3 -0.1
v -0.1 0.3 -0.2
v 0 0.3 -0.2
v -0.3 0.5 0.1
v -0.2 0.5 0.1
v 0.2 0.5 0.1
v 0.3 0.5 0.1
v -0.3 0.5 -0.1
v -0.2 0.5 -0.1
v 0.2 0.5 -0.1
v 0.3 0.5 -0.1
v -0.3 0.1 0.8
v 0.3 0.1 0.8
v -0.5 0.1 0.7
v -0.4 0.1 0.7
v -0.3 0.1 0.7
v 0.3 0.1 0.7
v 0.5 0.1 0.7
v -0.6 0.1 0.6
v -0.5 0.1 0.6
v -0.4 0.1 0.6
v 0.3 0.1 0.6
v 0.5 0.1 0.6
v 0.6 0.1 0.6
v -0.7 0.1 0.5
v -0.6 0.1 0.5
v -0.5 0.1 0.5
v -0.2 0.1 0.5
v 0.2 0.1 0.5
v 0.5 0.1 0.5
v 0.6 0.1 0.5
v 0.7 0.1 0.5
v -0.7 0.1 0.4
v -0.6 0.1 0.4
v -0.3 0.1 0.4
v -0.2 0.1 0.4
v 0.2 0.1 0.4
v 0.3 0.1 0.4
v -0.8 0.1 0.3
v -0.7 0.1 0.3
v -0.4 0.1 0.3
v -0.3 0.1 0.3
v 0.3 0.1 0.3
v 0.4 0.1 0.3
v 0.6 0.1 0.3
v 0.7 0.1 0.3
v 0.8 0.1 0.3
v -0.5 0.1 0.2
v -0.4 0.1 0.2
v 0.4 0.1 0.2
v 0.5 0.1 0.2
v -0.2 0.1 0.1
v 0.2 0.1 0.1
v -0.2 0.1 -0.1
v 0.2 0.1 -0.1
v -0.5 0.1 -0.2
v -0.4 0.1 -0.2
v -0.1 0.1 -0.2
v 0 0.1 -0.2
v 0.4 0.1 -0.2
v 0.5 0.1 -0.2
v -0.8 0.1 -0.3
v -0.7 0.1 -0.3
v -0.6 0.1 -0.3
v -0.4 0.1 -0.3
v -0.3 0.1 -0.3
v -0.1 0.1 -0.3
v 0 0.1 -0.3
v 0.3 0.1 -0.3
v 0.4 0.1 -0.3
v 0.6 0.1 -0.3
v 0.7 0.1 -0.3
v 0.8 0.1 -0.3
v -0.3 0.1 -0.4
v -0.2 0.1 -0.4
v 0.2 0.1 -0.4
v 0.3 0.1 -0.4
v -0.7 0.1 -0.5
v -0.6 0.1 -0.5
v -0.5 0.1 -0.5
v -0.2 0.1 -0.5
v 0.2 0.1 -0.5
v 0.5 0.1 -0.5
v 0.6 0.1 -0.5
v 0.7 0.1 -0.5
v -0.6 0.1 -0.6
v -0.5 0.1 -0.6
v -0.3 0.1 -0.6
v 0.3 0.1 -0.6
v 0.5 0.1 -0.6
v 0.6 0.1 -0.6
v -0.5 0.1 -0.7
v -0.3 0.1 -0.7
v 0.3 0.1 -0.7
v 0.5 0.1 -0.7
v -0.3 0.1 -0.8
v 0.3 0.1 -0.8
v -0.4 0.2 0.7
v 0.3 0.2 0.7
v -0.5 0.2 0.6
v -0.4 0.2 0.6
v 0.3 0.2 0.6
v 0.5 0.2 0.6
v -0.6 0.2 0.5
v -0.5 0.2 0.5
v -0.2 0.2 0.5
v 0.2 0.2 0.5
v 0.5 0.2 0.5
v 0.6 0.2 0.5
v -0.7 0.2 0.4
v -0.6 0.2 0.4
v -0.3 0.2 0.4
v -0.2 0.2 0.4
v 0.2 0.2 0.4
v 0.3 0.2 0.4
v -0.4 0.2 0.3
v -0.3 0.2 0.3
v 0.3 0.2 0.3
v 0.4 0.2 0.3
v 0.6 0.2 0.3
v 0.7 0.2 0.3
v -0.5 0.2 0.2
v -0.4 0.2 0.2
v 0.4 0.2 0.2
v 0.5 0.2 0.2
v -0.5 0.2 -0.2
v -0.4 0.2 -0.2
v 0.4 0.2 -0.2
v 0.5 0.2 -0.2
v -0.7 0.2 -0.3
v -0.6 0.2 -0.3
v -0.4 0.2 -0.3
v -0.3 0.2 -0.3
v 0.3 0.2 -0.3
v 0.4 0.2 -0.3
v 0.6 0.2 -0.3
v 0.7 0.2 -0.3
v -0.3 0.2 -0.4
v -0.2 0.2 -0.4
v 0.2 0.2 -0.4
v 0.3 0.2 -0.4
v -0.6 0.2 -0.5
v -0.5 0.2 -0.5
v -0.2 0.2 -0.5
v 0.2 0.2 -0.5
v 0.5 0.2 -0.5
v 0.6 0.2 -0.5
v -0.5 0.2 -0.6
v -0.3 0.2 -0.6
v 0.3 0.2 -0.6
v 0.5 0.2 -0.6
v -0.3 0.2 -0.7
v 0.3 0.2 -0.7
v -0.1 0.4 -0.1
v 0 0.4 -0.1
v -0.1 0.4 -0.3
v 0 0.4 -0.3
v -0.1 0.5 0.1
v 0.1 0.5 0.1
v -0.1 0.5 -0.1
v 0.1 0.5 -0.1
v -0.3 0.6 0.1
v -0.1 0.6 0.1
v 0.1 0.6 0.1
v 0.3 0.6 0.1
v -0.3 0.6 -0.1
v -0.1 0.6 -0.1
v 0.1 0.6 -0.1
v 0.3 0.6 -0.1

# faces
f 3/2/1 2/2/1 1/2/1
f 4/2/1 2/2/1 3/2/1
f 9/2/1 6/2/1 5/2/1
f 10/2/1 6/2/1 9/2/1
f 11/2/1 6/2/1 10/2/1
f 12/2/1 8/2/1 7/2/1
f 13/2/1 8/2/1 12/2/1
f 14/2/1 11/2/1 10/2/1
f 14/2/1 12/2/1 11/2/1
f 15/2/1 12/2/1 14/2/1
f 20/2/1 17/2/1 16/2/1
f 21/2/1 17/2/1 20/2/1
f 24/2/1 19/2/1 18/2/1
f 25/2/1 19/2/1 24/2/1
f 26/2/1 22/2/1 21/2/1
f 27/2/1 22/2/1 26/2/1
f 28/2/1 24/2/1 23/2/1
f 29/2/1 24/2/1 28/2/1
f 34/2/1 31/2/1 30/2/1
f 35/2/1 31/2/1 34/2/1
f 38/2/1 33/2/1 32/2/1
f 39/2/1 33/2/1 38/2/1
f 40/2/1 36/2/1 35/2/1
f 41/2/1 36/2/1 40/2/1
f 42/2/1 38/2/1 37/2/1
f 43/2/1 38/2/1 42/2/1
f 46/2/1 45/2/1 44/2/1
f 47/2/1 45/2/1 46/2/1
f 52/2/1 49/2/1 48/2/1
f 53/2/1 49/2/1 52/2/1
f 55/2/1 51/2/1 50/2/1
f 56/2/1 51/2/1 55/2/1
f 57/2/1 55/2/1 54/2/1
f 58/2/1 55/2/1 57/2/1
f 61/3/1 60/3/1 59/3/1
f 62/3/1 60/3/1 61/3/1
f 65/1/1 64/1/1 63/1/1
f 66/1/1 64/1/1 65/1/1
f 70/1/1 68/1/1 67/1/1
f 71/1/1 70/1/1 69/1/1
f 72/1/1 68/1/1 70/1/1
f 72/1/1 70/1/1 71/1/1
f 75/3/1 74/3/1 73/3/1
f 76/3/1 74/3/1 75/3/1
f 81/2/1 78/2/1 77/2/1
f 82/2/1 78/2/1 81/2/1
f 83/2/1 80/2/1 79/2/1
f 84/2/1 80/2/1 83/2/1
f 89/2/1 86/2/1 85/2/1
f 90/2/1 86/2/1 89/2/1
f 91/2/1 88/2/1 87/2/1
f 92/2/1 88/2/1 91/2/1
f 97/2/1 94/2/1 93/2/1
f 98/2/1 94/2/1 97/2/1
f 99/2/1 96/2/1 95/2/1
f 100/2/1 96/2/1 99/2/1
f 103/2/1 102/2/1 101/2/1
f 104/2/1 102/2/1 103/2/1
f 105/2/2 106/2/2 107/2/2
f 107/2/2 106/2/2 108/2/2
f 109/2/2 110/2/2 113/2/2
f 113/2/2 110/2/2 114/2/2
f 111/2/2 112/2/2 115/2/2
f 115/2/2 112/2/2 116/2/2
f 117/2/2 118/2/2 121/2/2
f 121/2/2 118/2/2 122/2/2
f 119/2/2 120/2/2 123/2/2
f 123/2/2 120/2/2 124/2/2
f 125/2/2 126/2/2 129/2/2
f 129/2/2 126/2/2 130/2/2
f 127/2/2 128/2/2 131/2/2
f 131/2/2 128/2/2 132/2/2
f 133/3/2 134/3/2 135/3/2
f 135/3/2 134/3/2 136/3/2
f 137/1/2 138/1/2 140/1/2
f 139/1/2 140/1/2 141/1/2
f 140/1/2 138/1/2 142/1/2
f 141/1/2 140/1/2 142/1/2
f 143/1/2 144/1/2 145/1/2
f 145/1/2 144/1/2 146/1/2
f 147/2/2 148/2/2 151/2/2
f 151/2/2 148/2/2 152/2/2
f 149/2/2 150/2/2 155/2/2
f 155/2/2 150/2/2 156/2/2
f 152/2/2 153/2/2 157/2/2
f 157/2/2 153/2/2 158/2/2
f 154/2/2 155/2/2 159/2/2
f 159/2/2 155/2/2 160/2/2
f 161/3/2 162/3/2 163/3/2
f 163/3/2 162/3/2 164/3/2
f 165/2/2 166/2/2 169/2/2
f 169/2/2 166/2/2 170/2/2
f 167/2/2 168/2/2 173/2/2
f 173/2/2 168/2/2 174/2/2
f 170/2/2 171/2/2 175/2/2
f 175/2/2 171/2/2 176/2/2
f 172/2/2 173/2/2 177/2/2
f 177/2/2 173/2/2 178/2/2
f 179/2/2 180/2/2 183/2/2
f 183/2/2 180/2/2 184/2/2
f 181/2/2 182/2/2 187/2/2
f 187/2/2 182/2/2 188/2/2
f 184/2/2 185/2/2 189/2/2
f 189/2/2 185/2/2 190/2/2
f 186/2/2 187/2/2 191/2/2
f 191/2/2 187/2/2 192/2/2
f 193/2/2 194/2/2 197/2/2
f 197/2/2 194/2/2 198/2/2
f 195/2/2 196/2/2 199/2/2
f 199/2/2 196/2/2 200/2/2
f 198/2/2 199/2/2 201/2/2
f 201/2/2 199/2/2 202/2/2
f 203/2/2 204/2/2 205/2/2
f 205/2/2 204/2/2 206/2/2
f 209/2/3 208/2/3 207/2/3
f 210/2/3 208/2/3 209/2/3
f 213/2/3 212/2/3 211/2/3
f 215/2/3 213/2/3 211/2/3
f 215/2/3 214/2/3 213/2/3
f 216/2/3 214/2/3 215/2/3
f 218/2/3 214/2/3 216/2/3
f 219/2/3 214/2/3 218/2/3
f 220/2/3 218/2/3 217/2/3
f 221/2/3 218/2/3 220/2/3
f 224/2/3 223/2/3 222/2/3
f 225/2/3 223/2/3 224/2/3
f 227/2/3 226/2/3 225/2/3
f 228/2/3 226/2/3 227/2/3
f 232/2/3 230/2/3 229/2/3
f 233/2/3 230/2/3 232/2/3
f 234/2/3 232/2/3 231/2/3
f 235/2/3 232/2/3 234/2/3
f 238/2/3 237/2/3 236/2/3
f 239/2/3 237/2/3 238/2/3
f 241/2/3 240/2/3 239/2/3
f 242/2/3 240/2/3 241/2/3
f 246/2/3 244/2/3 243/2/3
f 247/2/3 244/2/3 246/2/3
f 248/2/3 246/2/3 245/2/3
f 249/2/3 246/2/3 248/2/3
f 252/2/3 251/2/3 250/2/3
f 253/2/3 251/2/3 252/2/3
f 256/2/3 255/2/3 254/2/3
f 257/2/3 255/2/3 256/2/3
f 261/2/3 259/2/3 258/2/3
f 262/2/3 259/2/3 261/2/3
f 263/2/3 261/2/3 260/2/3
f 264/2/3 261/2/3 263/2/3
f 268/3/3 266/3/3 265/3/3
f 269/1/3 268/1/3 267/1/3
f 270/1/3 268/1/3 269/1/3
f 271/3/3 266/3/3 268/3/3
f 271/1/3 268/1/3 270/1/3
f 272/3/3 266/3/3 271/3/3
f 273/3/3 270/3/3 269/3/3
f 273/1/3 269/1/3 267/1/3
f 274/1/3 271/1/3 270/1/3
f 274/3/3 270/3/3 273/3/3
f 275/1/3 271/1/3 274/1/3
f 277/1/3 273/1/3 267/1/3
f 277/1/3 274/1/3 273/1/3
f 277/1/3 275/1/3 274/1/3
f 278/3/3 276/3/3 275/3/3
f 278/1/3 275/1/3 277/1/3
f 279/3/3 276/3/3 278/3/3
f 280/3/3 276/3/3 279/3/3
f 283/2/3 282/2/3 281/2/3
f 284/2/3 282/2/3 283/2/3
f 287/1/3 286/1/3 285/1/3
f 288/1/3 286/1/3 287/1/3
f 291/2/3 290/2/3 289/2/3
f 292/2/3 290/2/3 291/2/3
f 295/2/3 294/2/3 293/2/3
f 296/2/3 294/2/3 295/2/3
f 299/2/3 298/2/3 297/2/3
f 300/2/3 298/2/3 299/2/3
f 303/2/3 302/2/3 301/2/3
f 304/2/3 302/2/3 303/2/3
f 307/2/3 306/2/3 305/2/3
f 308/2/3 306/2/3 307/2/3
f 311/2/3 310/2/3 309/2/3
f 312/2/3 310/2/3 311/2/3
f 313/2/4 314/2/4 315/2/4
f 315/2/4 314/2/4 316/2/4
f 317/2/4 318/2/4 319/2/4
f 319/2/4 318/2/4 320/2/4
f 321/2/4 322/2/4 323/2/4
f 323/2/4 322/2/4 324/2/4
f 325/2/4 326/2/4 327/2/4
f 327/2/4 326/2/4 328/2/4
f 329/2/4 330/2/4 331/2/4
f 331/2/4 330/2/4 332/2/4
f 333/2/4 334/2/4 335/2/4
f 335/2/4 334/2/4 336/2/4
f 337/2/4 338/2/4 339/2/4
f 339/2/4 338/2/4 340/2/4
f 341/3/4 342/3/4 344/3/4
f 343/1/4 344/1/4 345/1/4
f 345/1/4 344/1/4 346/1/4
f 344/3/4 342/3/4 347/3/4
f 346/1/4 344/1/4 347/1/4
f 347/3/4 342/3/4 348/3/4
f 343/1/4 345/1/4 349/1/4
f 346/1/4 347/1/4 350/1/4
f 350/1/4 347/1/4 351/1/4
f 349/1/4 350/1/4 351/1/4
f 343/1/4 349/1/4 353/1/4
f 349/1/4 351/1/4 353/1/4
f 351/3/4 352/3/4 354/3/4
f 353/1/4 351/1/4 354/1/4
f 354/3/4 352/3/4 355/3/4
f 355/3/4 352/3/4 356/3/4
f 357/2/4 358/2/4 359/2/4
f 359/2/4 358/2/4 360/2/4
f 360/2/4 361/2/4 362/2/4
f 362/2/4 361/2/4 363/2/4
f 364/1/4 365/1/4 366/1/4
f 366/1/4 365/1/4 367/1/4
f 368/2/4 369/2/4 371/2/4
f 371/2/4 369/2/4 372/2/4
f 370/2/4 371/2/4 373/2/4
f 373/2/4 371/2/4 374/2/4
f 375/2/4 376/2/4 377/2/4
f 377/2/4 376/2/4 378/2/4
f 378/2/4 379/2/4 380/2/4
f 380/2/4 379/2/4 381/2/4
f 382/2/4 383/2/4 385/2/4
f 385/2/4 383/2/4 386/2/4
f 384/2/4 385/2/4 387/2/4
f 387/2/4 385/2/4 388/2/4
f 389/2/4 390/2/4 391/2/4
f 391/2/4 390/2/4 392/2/4
f 392/2/4 393/2/4 394/2/4
f 394/2/4 393/2/4 395/2/4
f 396/2/4 397/2/4 399/2/4
f 399/2/4 397/2/4 400/2/4
f 398/2/4 399/2/4 401/2/4
f 401/2/4 399/2/4 402/2/4
f 403/2/4 404/2/4 405/2/4
f 405/2/4 404/2/4 406/2/4
f 406/2/4 407/2/4 409/2/4
f 409/2/4 407/2/4 410/2/4
f 408/2/4 409/2/4 411/2/4
f 411/2/4 409/2/4 412/2/4
f 413/2/4 414/2/4 415/2/4
f 415/2/4 414/2/4 416/2/4
f 420/2/5 418/2/5 417/2/5
f 421/2/5 418/2/5 420/2/5
f 424/2/5 420/2/5 419/2/5
f 424/2/5 422/2/5 421/2/5
f 424/2/5 421/2/5 420/2/5
f 425/2/5 422/2/5 424/2/5
f 428/2/5 424/2/5 423/2/5
f 428/2/5 426/2/5 425/2/5
f 428/2/5 425/2/5 424/2/5
f 429/2/5 426/2/5 428/2/5
f 432/2/5 428/2/5 427/2/5
f 432/2/5 430/2/5 429/2/5
f 432/2/5 429/2/5 428/2/5
f 433/2/5 430/2/5 432/2/5
f 435/2/5 432/2/5 431/2/5
f 435/2/5 434/2/5 433/2/5
f 435/2/5 433/2/5 432/2/5
f 436/2/5 434/2/5 435/2/5
f 437/2/5 434/2/5 436/2/5
f 438/2/5 434/2/5 437/2/5
f 439/2/5 437/2/5 436/2/5
f 440/2/5 437/2/5 439/2/5
f 441/2/5 437/2/5 440/2/5
f 442/2/5 437/2/5 441/2/5
f 443/2/5 441/2/5 440/2/5
f 444/2/5 441/2/5 443/2/5
f 445/2/5 441/2/5 444/2/5
f 446/2/5 441/2/5 445/2/5
f 447/2/5 445/2/5 444/2/5
f 448/2/5 445/2/5 447/2/5
f 449/2/5 445/2/5 448/2/5
f 450/2/5 445/2/5 449/2/5
f 451/2/5 449/2/5 448/2/5
f 452/2/5 449/2/5 451/2/5
f 455/1/5 454/1/5 453/1/5
f 456/1/5 454/1/5 455/1/5
f 461/3/5 458/3/5 457/3/5
f 462/3/5 458/3/5 461/3/5
f 463/3/5 460/3/5 459/3/5
f 464/3/5 460/3/5 463/3/5
f 465/2/6 466/2/6 469/2/6
f 469/2/6 466/2/6 470/2/6
f 467/2/6 468/2/6 473/2/6
f 473/2/6 468/2/6 474/2/6
f 470/2/6 471/2/6 475/2/6
f 475/2/6 471/2/6 476/2/6
f 472/2/6 473/2/6 479/2/6
f 479/2/6 473/2/6 480/2/6
f 476/2/6 477/2/6 483/2/6
f 483/2/6 477/2/6 484/2/6
f 478/2/6 479/2/6 486/2/6
f 486/2/6 479/2/6 487/2/6
f 481/2/6 482/2/6 489/2/6
f 489/2/6 482/2/6 490/2/6
f 490/2/6 491/2/6 495/2/6
f 488/2/6 489/2/6 495/2/6
f 489/2/6 490/2/6 495/2/6
f 495/2/6 491/2/6 496/2/6
f 484/2/6 485/2/6 498/2/6
f 498/2/6 485/2/6 499/2/6
f 496/2/6 497/2/6 502/2/6
f 494/2/6 495/2/6 502/2/6
f 495/2/6 496/2/6 502/2/6
f 502/2/6 497/2/6 503/2/6
f 501/2/6 502/2/6 505/2/6
f 503/2/6 504/2/6 505/2/6
f 502/2/6 503/2/6 505/2/6
f 505/2/6 504/2/6 506/2/6
f 501/2/6 505/2/6 507/2/6
f 506/2/6 504/2/6 508/2/6
f 501/2/6 507/2/6 509/2/6
f 507/2/6 508/2/6 509/2/6
f 509/2/6 508/2/6 510/2/6
f 510/2/6 508/2/6 511/2/6
f 511/2/6 508/2/6 512/2/6
f 508/2/6 504/2/6 513/2/6
f 512/2/6 508/2/6 513/2/6
f 513/2/6 504/2/6 514/2/6
f 492/2/6 493/2/6 515/2/6
f 515/2/6 493/2/6 516/2/6
f 510/2/6 511/2/6 518/2/6
f 518/2/6 511/2/6 519/2/6
f 519/2/6 511/2/6 520/2/6
f 512/2/6 513/2/6 521/2/6
f 521/2/6 513/2/6 522/2/6
f 522/2/6 513/2/6 523/2/6
f 499/2/6 500/2/6 525/2/6
f 525/2/6 500/2/6 526/2/6
f 521/2/6 522/2/6 527/2/6
f 519/2/6 520/2/6 527/2/6
f 520/2/6 521/2/6 527/2/6
f 527/2/6 522/2/6 528/2/6
f 528/2/6 522/2/6 529/2/6
f 529/2/6 522/2/6 530/2/6
f 516/2/6 517/2/6 531/2/6
f 531/2/6 517/2/6 532/2/6
f 528/2/6 529/2/6 534/2/6
f 534/2/6 529/2/6 535/2/6
f 524/2/6 525/2/6 537/2/6
f 537/2/6 525/2/6 538/2/6
f 532/2/6 533/2/6 539/2/6
f 539/2/6 533/2/6 540/2/6
f 536/2/6 537/2/6 543/2/6
f 543/2/6 537/2/6 544/2/6
f 540/2/6 541/2/6 545/2/6
f 545/2/6 541/2/6 546/2/6
f 542/2/6 543/2/6 547/2/6
f 547/2/6 543/2/6 548/2/6
f 546/2/6 547/2/6 549/2/6
f 549/2/6 547/2/6 550/2/6
f 551/2/6 552/2/6 554/2/6
f 554/2/6 552/2/6 555/2/6
f 553/2/6 554/2/6 558/2/6
f 555/2/6 556/2/6 558/2/6
f 554/2/6 555/2/6 558/2/6
f 558/2/6 556/2/6 559/2/6
f 559/2/6 556/2/6 560/2/6
f 560/2/6 556/2/6 561/2/6
f 557/2/6 558/2/6 564/2/6
f 558/2/6 559/2/6 564/2/6
f 564/2/6 559/2/6 565/2/6
f 565/2/6 559/2/6 566/2/6
f 560/2/6 561/2/6 567/2/6
f 561/2/6 562/2/6 567/2/6
f 567/2/6 562/2/6 568/2/6
f 564/2/6 565/2/6 569/2/6
f 563/2/6 564/2/6 569/2/6
f 569/2/6 565/2/6 570/2/6
f 568/2/6 562/2/6 571/2/6
f 571/2/6 562/2/6 572/2/6
f 572/2/6 562/2/6 573/2/6
f 563/2/6 569/2/6 575/2/6
f 575/2/6 569/2/6 576/2/6
f 573/2/6 574/2/6 577/2/6
f 572/2/6 573/2/6 577/2/6
f 577/2/6 574/2/6 578/2/6
f 563/2/6 575/2/6 579/2/6
f 578/2/6 574/2/6 582/2/6
f 579/2/6 580/2/6 583/2/6
f 563/2/6 579/2/6 583/2/6
f 583/2/6 580/2/6 584/2/6
f 584/2/6 580/2/6 585/2/6
f 581/2/6 582/2/6 588/2/6
f 582/2/6 574/2/6 589/2/6
f 588/2/6 582/2/6 589/2/6
f 589/2/6 574/2/6 590/2/6
f 585/2/6 586/2/6 591/2/6
f 584/2/6 585/2/6 591/2/6
f 587/2/6 588/2/6 594/2/6
f 588/2/6 589/2/6 594/2/6
f 591/2/6 592/2/6 595/2/6
f 584/2/6 591/2/6 595/2/6
f 595/2/6 592/2/6 596/2/6
f 596/2/6 592/2/6 597/2/6
f 593/2/6 594/2/6 598/2/6
f 594/2/6 589/2/6 599/2/6
f 598/2/6 594/2/6 599/2/6
f 599/2/6 589/2/6 600/2/6
f 596/2/6 597/2/6 601/2/6
f 597/2/6 598/2/6 601/2/6
f 598/2/6 599/2/6 601/2/6
f 601/2/6 599/2/6 602/2/6
f 602/2/6 599/2/6 603/2/6
f 603/2/6 599/2/6 604/2/6
f 602/2/6 603/2/6 605/2/6
f 605/2/6 603/2/6 606/2/6
f 607/1/6 608/1/6 609/1/6
f 609/1/6 608/1/6 610/1/6
f 611/1/6 612/1/6 613/1/6
f 613/1/6 612/1/6 614/1/6
f 615/3/6 616/3/6 619/3/6
f 619/3/6 616/3/6 620/3/6
f 617/3/6 618/3/6 621/3/6
f 621/3/6 618/3/6 622/3/6
