# MagicaVoxel @ Ephtracy

# group
o 

# material
mtllib rail_l.mtl
usemtl palette

# normals
vn -1 0 0
vn 1 0 0
vn 0 0 1
vn 0 0 -1
vn 0 -1 0
vn 0 1 0

# texcoords
vt 0.306641 0.5
vt 0.994141 0.5

# verts
v -0.8 0 0.7
v -0.8 0 0
v -0.8 0.1 0.7
v -0.8 0.1 0.6
v -0.8 0.1 0.5
v -0.8 0.1 0
v -0.8 0.1 -0.5
v -0.8 0.1 -0.6
v -0.8 0.2 0.6
v -0.8 0.2 0.5
v -0.8 0.2 -0.5
v -0.8 0.2 -0.6
v -0.7 0 0
v -0.7 0 -0.4
v -0.7 0.1 0
v -0.7 0.1 -0.4
v -0.6 0 -0.4
v -0.6 0 -0.8
v -0.6 0.1 0.8
v -0.6 0.1 0.7
v -0.6 0.1 0.6
v -0.6 0.1 -0.4
v -0.6 0.1 -0.5
v -0.6 0.1 -0.6
v -0.6 0.1 -0.8
v -0.6 0.2 0.8
v -0.6 0.2 0.6
v -0.4 0 0.1
v -0.4 0 0
v -0.4 0.1 0.1
v -0.4 0.1 0
v -0.3 0 0
v -0.3 0 -0.1
v -0.3 0.1 0
v -0.3 0.1 -0.1
v -0.2 0 -0.1
v -0.2 0 -0.2
v -0.2 0.1 -0.1
v -0.2 0.1 -0.2
v -0.1 0 0.4
v -0.1 0 0.3
v -0.1 0 -0.2
v -0.1 0 -0.3
v -0.1 0.1 0.4
v -0.1 0.1 0.3
v -0.1 0.1 -0.2
v -0.1 0.1 -0.3
v -0.1 0.1 -0.4
v -0.1 0.1 -0.5
v -0.1 0.2 -0.4
v -0.1 0.2 -0.5
v 0 0 -0.3
v 0 0 -0.4
v 0 0.1 -0.3
v 0 0.1 -0.4
v 0.1 0 -0.4
v 0.1 0 -0.5
v 0.1 0.1 -0.3
v 0.1 0.1 -0.4
v 0.1 0.1 -0.5
v 0.1 0.2 -0.3
v 0.1 0.2 -0.4
v 0.2 0 -0.5
v 0.2 0 -0.6
v 0.2 0.1 -0.5
v 0.2 0.1 -0.6
v 0.3 0.1 -0.1
v 0.3 0.1 -0.3
v 0.3 0.2 -0.1
v 0.3 0.2 -0.3
v 0.4 0 0.3
v 0.4 0 0.2
v 0.4 0.1 0.3
v 0.4 0.1 0.2
v 0.4 0.1 0.1
v 0.4 0.1 -0.1
v 0.4 0.2 0.1
v 0.4 0.2 -0.1
v 0.5 0.1 0.8
v 0.5 0.1 0.5
v 0.5 0.1 0.2
v 0.5 0.1 0.1
v 0.5 0.2 0.8
v 0.5 0.2 0.1
v -0.6 0.1 0.6
v -0.6 0.1 0.5
v -0.6 0.2 0.6
v -0.6 0.2 0.5
v -0.5 0 0.1
v -0.5 0 0
v -0.5 0.1 0.8
v -0.5 0.1 0.7
v -0.5 0.1 0.6
v -0.5 0.1 0.1
v -0.5 0.1 0
v -0.5 0.2 0.8
v -0.5 0.2 0.6
v -0.4 0 0
v -0.4 0 -0.4
v -0.4 0.1 0
v -0.4 0.1 -0.4
v -0.3 0 -0.4
v -0.3 0 -0.8
v -0.3 0.1 -0.4
v -0.3 0.1 -0.5
v -0.3 0.1 -0.6
v -0.3 0.1 -0.8
v -0.2 0 0.4
v -0.2 0 0.3
v -0.2 0.1 0.4
v -0.2 0.1 0.3
v -0.1 0 0.7
v -0.1 0 0.6
v -0.1 0 0.3
v -0.1 0 0.2
v -0.1 0.1 0.7
v -0.1 0.1 0.6
v -0.1 0.1 0.3
v -0.1 0.1 0.2
v -0.1 0.1 -0.5
v -0.1 0.1 -0.6
v -0.1 0.2 -0.5
v -0.1 0.2 -0.6
v 0 0 0.2
v 0 0 0.1
v 0 0.1 0.2
v 0 0.1 0.1
v 0.1 0 0.1
v 0.1 0 0
v 0.1 0.1 0.1
v 0.1 0.1 0
v 0.1 0.1 -0.4
v 0.1 0.1 -0.5
v 0.1 0.2 -0.4
v 0.1 0.2 -0.5
v 0.2 0 0
v 0.2 0 -0.1
v 0.2 0.1 0
v 0.2 0.1 -0.1
v 0.3 0 -0.1
v 0.3 0 -0.2
v 0.3 0.1 -0.1
v 0.3 0.1 -0.2
v 0.3 0.1 -0.3
v 0.3 0.1 -0.4
v 0.3 0.2 -0.3
v 0.3 0.2 -0.4
v 0.4 0 0.6
v 0.4 0 0.5
v 0.4 0 -0.2
v 0.4 0 -0.3
v 0.4 0 -0.5
v 0.4 0 -0.6
v 0.4 0.1 0.6
v 0.4 0.1 0.5
v 0.4 0.1 -0.1
v 0.4 0.1 -0.2
v 0.4 0.1 -0.3
v 0.4 0.1 -0.5
v 0.4 0.1 -0.6
v 0.4 0.2 -0.1
v 0.4 0.2 -0.3
v 0.5 0 -0.3
v 0.5 0 -0.5
v 0.5 0.1 0.1
v 0.5 0.1 -0.1
v 0.5 0.1 -0.3
v 0.5 0.1 -0.5
v 0.5 0.2 0.1
v 0.5 0.2 -0.1
v 0.6 0.1 0.8
v 0.6 0.1 0.5
v 0.6 0.1 0.2
v 0.6 0.1 0.1
v 0.6 0.2 0.8
v 0.6 0.2 0.1
v 0.8 0 0.5
v 0.8 0 0.2
v 0.8 0.1 0.5
v 0.8 0.1 0.2
v -0.6 0.1 0.8
v -0.6 0.2 0.8
v -0.5 0.1 0.8
v -0.5 0.2 0.8
v 0.5 0.1 0.8
v 0.5 0.2 0.8
v 0.6 0.1 0.8
v 0.6 0.2 0.8
v -0.8 0 0.7
v -0.8 0.1 0.7
v -0.6 0.1 0.7
v -0.5 0.1 0.7
v -0.1 0 0.7
v -0.1 0.1 0.7
v -0.8 0.1 0.6
v -0.8 0.2 0.6
v -0.6 0.1 0.6
v -0.6 0.2 0.6
v -0.1 0 0.6
v -0.1 0.1 0.6
v 0.4 0 0.6
v 0.4 0.1 0.6
v 0.4 0 0.5
v 0.4 0.1 0.5
v 0.5 0.1 0.5
v 0.6 0.1 0.5
v 0.8 0 0.5
v 0.8 0.1 0.5
v -0.2 0 0.3
v -0.2 0.1 0.3
v -0.1 0 0.3
v -0.1 0.1 0.3
v -0.1 0 0.2
v -0.1 0.1 0.2
v 0 0 0.2
v 0 0.1 0.2
v 0 0 0.1
v 0 0.1 0.1
v 0.1 0 0.1
v 0.1 0.1 0.1
v 0.4 0.1 0.1
v 0.4 0.2 0.1
v 0.5 0.1 0.1
v 0.5 0.2 0.1
v -0.5 0 0
v -0.5 0.1 0
v -0.4 0 0
v -0.4 0.1 0
v 0.1 0 0
v 0.1 0.1 0
v 0.2 0 0
v 0.2 0.1 0
v 0.2 0 -0.1
v 0.2 0.1 -0.1
v 0.3 0 -0.1
v 0.3 0.1 -0.1
v 0.3 0.2 -0.1
v 0.4 0.1 -0.1
v 0.4 0.2 -0.1
v 0.3 0 -0.2
v 0.3 0.1 -0.2
v 0.4 0 -0.2
v 0.4 0.1 -0.2
v 0.1 0.1 -0.3
v 0.1 0.2 -0.3
v 0.3 0.1 -0.3
v 0.3 0.2 -0.3
v 0.4 0 -0.3
v 0.4 0.1 -0.3
v 0.5 0 -0.3
v 0.5 0.1 -0.3
v -0.4 0 -0.4
v -0.4 0.1 -0.4
v -0.3 0 -0.4
v -0.3 0.1 -0.4
v -0.1 0.1 -0.4
v -0.1 0.2 -0.4
v 0 0.1 -0.4
v 0.1 0.1 -0.4
v 0.1 0.2 -0.4
v -0.8 0.1 -0.5
v -0.8 0.2 -0.5
v -0.6 0.1 -0.5
v -0.3 0.1 -0.5
v -0.1 0.1 -0.5
v -0.1 0.2 -0.5
v -0.6 0.1 0.6
v -0.6 0.2 0.6
v -0.5 0.1 0.6
v -0.5 0.2 0.6
v -0.8 0.1 0.5
v -0.8 0.2 0.5
v -0.6 0.1 0.5
v -0.6 0.2 0.5
v -0.2 0 0.4
v -0.2 0.1 0.4
v -0.1 0 0.4
v -0.1 0.1 0.4
v -0.1 0 0.3
v -0.1 0.1 0.3
v 0.4 0 0.3
v 0.4 0.1 0.3
v 0.4 0 0.2
v 0.4 0.1 0.2
v 0.5 0.1 0.2
v 0.6 0.1 0.2
v 0.8 0 0.2
v 0.8 0.1 0.2
v -0.5 0 0.1
v -0.5 0.1 0.1
v -0.4 0 0.1
v -0.4 0.1 0.1
v 0.5 0.1 0.1
v 0.5 0.2 0.1
v 0.6 0.1 0.1
v 0.6 0.2 0.1
v -0.8 0 0
v -0.8 0.1 0
v -0.7 0 0
v -0.7 0.1 0
v -0.4 0 0
v -0.4 0.1 0
v -0.3 0 0
v -0.3 0.1 0
v -0.3 0 -0.1
v -0.3 0.1 -0.1
v -0.2 0 -0.1
v -0.2 0.1 -0.1
v 0.4 0.1 -0.1
v 0.4 0.2 -0.1
v 0.5 0.1 -0.1
v 0.5 0.2 -0.1
v -0.2 0 -0.2
v -0.2 0.1 -0.2
v -0.1 0 -0.2
v -0.1 0.1 -0.2
v -0.1 0 -0.3
v -0.1 0.1 -0.3
v 0 0 -0.3
v 0 0.1 -0.3
v 0.3 0.1 -0.3
v 0.3 0.2 -0.3
v 0.4 0.1 -0.3
v 0.4 0.2 -0.3
v -0.7 0 -0.4
v -0.7 0.1 -0.4
v -0.6 0 -0.4
v -0.6 0.1 -0.4
v 0 0 -0.4
v 0 0.1 -0.4
v 0.1 0 -0.4
v 0.1 0.1 -0.4
v 0.1 0.2 -0.4
v 0.3 0.1 -0.4
v 0.3 0.2 -0.4
v -0.1 0.1 -0.5
v -0.1 0.2 -0.5
v 0.1 0 -0.5
v 0.1 0.1 -0.5
v 0.1 0.2 -0.5
v 0.2 0 -0.5
v 0.2 0.1 -0.5
v 0.4 0 -0.5
v 0.4 0.1 -0.5
v 0.5 0 -0.5
v 0.5 0.1 -0.5
v -0.8 0.1 -0.6
v -0.8 0.2 -0.6
v -0.6 0.1 -0.6
v -0.3 0.1 -0.6
v -0.1 0.1 -0.6
v -0.1 0.2 -0.6
v 0.2 0 -0.6
v 0.2 0.1 -0.6
v 0.4 0 -0.6
v 0.4 0.1 -0.6
v -0.6 0 -0.8
v -0.6 0.1 -0.8
v -0.3 0 -0.8
v -0.3 0.1 -0.8
v -0.8 0 0.7
v -0.1 0 0.7
v -0.1 0 0.6
v 0.4 0 0.6
v 0.4 0 0.5
v 0.8 0 0.5
v -0.2 0 0.4
v -0.1 0 0.4
v -0.2 0 0.3
v -0.1 0 0.3
v 0.4 0 0.3
v -0.1 0 0.2
v 0 0 0.2
v 0.4 0 0.2
v 0.8 0 0.2
v -0.5 0 0.1
v -0.4 0 0.1
v 0 0 0.1
v 0.1 0 0.1
v -0.8 0 0
v -0.7 0 0
v -0.5 0 0
v -0.4 0 0
v -0.3 0 0
v 0.1 0 0
v 0.2 0 0
v -0.3 0 -0.1
v -0.2 0 -0.1
v 0.2 0 -0.1
v 0.3 0 -0.1
v -0.2 0 -0.2
v -0.1 0 -0.2
v 0.3 0 -0.2
v 0.4 0 -0.2
v -0.1 0 -0.3
v 0 0 -0.3
v 0.4 0 -0.3
v 0.5 0 -0.3
v -0.7 0 -0.4
v -0.6 0 -0.4
v -0.4 0 -0.4
v -0.3 0 -0.4
v 0 0 -0.4
v 0.1 0 -0.4
v 0.1 0 -0.5
v 0.2 0 -0.5
v 0.4 0 -0.5
v 0.5 0 -0.5
v 0.2 0 -0.6
v 0.4 0 -0.6
v -0.6 0 -0.8
v -0.3 0 -0.8
v -0.6 0.1 0.8
v -0.5 0.1 0.8
v 0.5 0.1 0.8
v 0.6 0.1 0.8
v -0.6 0.1 0.7
v -0.5 0.1 0.7
v 0.5 0.1 0.5
v 0.6 0.1 0.5
v 0.5 0.1 0.2
v 0.6 0.1 0.2
v 0.4 0.1 0.1
v 0.5 0.1 0.1
v 0.6 0.1 0.1
v 0.3 0.1 -0.1
v 0.4 0.1 -0.1
v 0.5 0.1 -0.1
v 0.3 0.1 -0.2
v 0.4 0.1 -0.2
v -0.1 0.1 -0.4
v 0 0.1 -0.4
v 0.1 0.1 -0.4
v -0.8 0.1 -0.5
v -0.6 0.1 -0.5
v -0.3 0.1 -0.5
v -0.1 0.1 -0.5
v 0.1 0.1 -0.5
v -0.8 0.1 -0.6
v -0.6 0.1 -0.6
v -0.3 0.1 -0.6
v -0.1 0.1 -0.6
v -0.8 0.1 0.7
v -0.6 0.1 0.7
v -0.5 0.1 0.7
v -0.1 0.1 0.7
v -0.8 0.1 0.6
v -0.6 0.1 0.6
v -0.5 0.1 0.6
v -0.1 0.1 0.6
v 0.4 0.1 0.6
v -0.8 0.1 0.5
v -0.6 0.1 0.5
v 0.4 0.1 0.5
v 0.5 0.1 0.5
v 0.6 0.1 0.5
v 0.8 0.1 0.5
v -0.2 0.1 0.4
v -0.1 0.1 0.4
v -0.2 0.1 0.3
v -0.1 0.1 0.3
v 0.4 0.1 0.3
v -0.1 0.1 0.2
v 0 0.1 0.2
v 0.4 0.1 0.2
v 0.5 0.1 0.2
v 0.6 0.1 0.2
v 0.8 0.1 0.2
v -0.5 0.1 0.1
v -0.4 0.1 0.1
v 0 0.1 0.1
v 0.1 0.1 0.1
v -0.8 0.1 0
v -0.7 0.1 0
v -0.5 0.1 0
v -0.4 0.1 0
v -0.3 0.1 0
v 0.1 0.1 0
v 0.2 0.1 0
v -0.3 0.1 -0.1
v -0.2 0.1 -0.1
v 0.2 0.1 -0.1
v 0.3 0.1 -0.1
v -0.2 0.1 -0.2
v -0.1 0.1 -0.2
v -0.1 0.1 -0.3
v 0 0.1 -0.3
v 0.1 0.1 -0.3
v 0.3 0.1 -0.3
v 0.4 0.1 -0.3
v 0.5 0.1 -0.3
v -0.7 0.1 -0.4
v -0.6 0.1 -0.4
v -0.4 0.1 -0.4
v -0.3 0.1 -0.4
v 0 0.1 -0.4
v 0.1 0.1 -0.4
v 0.3 0.1 -0.4
v -0.6 0.1 -0.5
v -0.3 0.1 -0.5
v 0.1 0.1 -0.5
v 0.2 0.1 -0.5
v 0.4 0.1 -0.5
v 0.5 0.1 -0.5
v -0.6 0.1 -0.6
v -0.3 0.1 -0.6
v 0.2 0.1 -0.6
v 0.4 0.1 -0.6
v -0.6 0.1 -0.8
v -0.3 0.1 -0.8
v -0.6 0.2 0.8
v -0.5 0.2 0.8
v 0.5 0.2 0.8
v 0.6 0.2 0.8
v -0.8 0.2 0.6
v -0.6 0.2 0.6
v -0.5 0.2 0.6
v -0.8 0.2 0.5
v -0.6 0.2 0.5
v 0.4 0.2 0.1
v 0.5 0.2 0.1
v 0.6 0.2 0.1
v 0.3 0.2 -0.1
v 0.4 0.2 -0.1
v 0.5 0.2 -0.1
v 0.1 0.2 -0.3
v 0.3 0.2 -0.3
v 0.4 0.2 -0.3
v -0.1 0.2 -0.4
v 0.1 0.2 -0.4
v 0.3 0.2 -0.4
v -0.8 0.2 -0.5
v -0.1 0.2 -0.5
v 0.1 0.2 -0.5
v -0.8 0.2 -0.6
v -0.1 0.2 -0.6

# faces
f 3/1/1 2/1/1 1/1/1
f 4/1/1 2/1/1 3/1/1
f 5/1/1 2/1/1 4/1/1
f 6/1/1 2/1/1 5/1/1
f 9/2/1 5/2/1 4/2/1
f 10/2/1 5/2/1 9/2/1
f 11/2/1 8/2/1 7/2/1
f 12/2/1 8/2/1 11/2/1
f 15/1/1 14/1/1 13/1/1
f 16/1/1 14/1/1 15/1/1
f 22/1/1 18/1/1 17/1/1
f 23/1/1 18/1/1 22/1/1
f 24/1/1 18/1/1 23/1/1
f 25/1/1 18/1/1 24/1/1
f 26/2/1 21/2/1 20/2/1
f 26/2/1 20/2/1 19/2/1
f 27/2/1 21/2/1 26/2/1
f 30/1/1 29/1/1 28/1/1
f 31/1/1 29/1/1 30/1/1
f 34/1/1 33/1/1 32/1/1
f 35/1/1 33/1/1 34/1/1
f 38/1/1 37/1/1 36/1/1
f 39/1/1 37/1/1 38/1/1
f 44/1/1 41/1/1 40/1/1
f 45/1/1 41/1/1 44/1/1
f 46/1/1 43/1/1 42/1/1
f 47/1/1 43/1/1 46/1/1
f 50/2/1 49/2/1 48/2/1
f 51/2/1 49/2/1 50/2/1
f 54/1/1 53/1/1 52/1/1
f 55/1/1 53/1/1 54/1/1
f 59/1/1 57/1/1 56/1/1
f 60/1/1 57/1/1 59/1/1
f 61/2/1 59/2/1 58/2/1
f 62/2/1 59/2/1 61/2/1
f 65/1/1 64/1/1 63/1/1
f 66/1/1 64/1/1 65/1/1
f 69/2/1 68/2/1 67/2/1
f 70/2/1 68/2/1 69/2/1
f 73/1/1 72/1/1 71/1/1
f 74/1/1 72/1/1 73/1/1
f 77/2/1 76/2/1 75/2/1
f 78/2/1 76/2/1 77/2/1
f 83/2/1 80/2/1 79/2/1
f 83/2/1 82/2/1 81/2/1
f 83/2/1 81/2/1 80/2/1
f 84/2/1 82/2/1 83/2/1
f 85/2/2 86/2/2 87/2/2
f 87/2/2 86/2/2 88/2/2
f 89/1/2 90/1/2 94/1/2
f 94/1/2 90/1/2 95/1/2
f 92/2/2 93/2/2 96/2/2
f 91/2/2 92/2/2 96/2/2
f 96/2/2 93/2/2 97/2/2
f 98/1/2 99/1/2 100/1/2
f 100/1/2 99/1/2 101/1/2
f 102/1/2 103/1/2 104/1/2
f 104/1/2 103/1/2 105/1/2
f 105/1/2 103/1/2 106/1/2
f 106/1/2 103/1/2 107/1/2
f 108/1/2 109/1/2 110/1/2
f 110/1/2 109/1/2 111/1/2
f 112/1/2 113/1/2 116/1/2
f 116/1/2 113/1/2 117/1/2
f 114/1/2 115/1/2 118/1/2
f 118/1/2 115/1/2 119/1/2
f 120/2/2 121/2/2 122/2/2
f 122/2/2 121/2/2 123/2/2
f 124/1/2 125/1/2 126/1/2
f 126/1/2 125/1/2 127/1/2
f 128/1/2 129/1/2 130/1/2
f 130/1/2 129/1/2 131/1/2
f 132/2/2 133/2/2 134/2/2
f 134/2/2 133/2/2 135/2/2
f 136/1/2 137/1/2 138/1/2
f 138/1/2 137/1/2 139/1/2
f 140/1/2 141/1/2 142/1/2
f 142/1/2 141/1/2 143/1/2
f 144/2/2 145/2/2 146/2/2
f 146/2/2 145/2/2 147/2/2
f 148/1/2 149/1/2 154/1/2
f 154/1/2 149/1/2 155/1/2
f 150/1/2 151/1/2 157/1/2
f 157/1/2 151/1/2 158/1/2
f 152/1/2 153/1/2 159/1/2
f 159/1/2 153/1/2 160/1/2
f 157/2/2 158/2/2 161/2/2
f 156/2/2 157/2/2 161/2/2
f 161/2/2 158/2/2 162/2/2
f 163/1/2 164/1/2 167/1/2
f 167/1/2 164/1/2 168/1/2
f 165/2/2 166/2/2 169/2/2
f 169/2/2 166/2/2 170/2/2
f 171/2/2 172/2/2 175/2/2
f 173/2/2 174/2/2 175/2/2
f 172/2/2 173/2/2 175/2/2
f 175/2/2 174/2/2 176/2/2
f 177/1/2 178/1/2 179/1/2
f 179/1/2 178/1/2 180/1/2
f 183/2/3 182/2/3 181/2/3
f 184/2/3 182/2/3 183/2/3
f 187/2/3 186/2/3 185/2/3
f 188/2/3 186/2/3 187/2/3
f 191/1/3 190/1/3 189/1/3
f 192/1/3 191/1/3 189/1/3
f 193/1/3 192/1/3 189/1/3
f 194/1/3 192/1/3 193/1/3
f 197/2/3 196/2/3 195/2/3
f 198/2/3 196/2/3 197/2/3
f 201/1/3 200/1/3 199/1/3
f 202/1/3 200/1/3 201/1/3
f 205/1/3 204/1/3 203/1/3
f 206/1/3 205/1/3 203/1/3
f 207/1/3 206/1/3 203/1/3
f 208/1/3 206/1/3 207/1/3
f 211/1/3 210/1/3 209/1/3
f 212/1/3 210/1/3 211/1/3
f 215/1/3 214/1/3 213/1/3
f 216/1/3 214/1/3 215/1/3
f 219/1/3 218/1/3 217/1/3
f 220/1/3 218/1/3 219/1/3
f 223/2/3 222/2/3 221/2/3
f 224/2/3 222/2/3 223/2/3
f 227/1/3 226/1/3 225/1/3
f 228/1/3 226/1/3 227/1/3
f 231/1/3 230/1/3 229/1/3
f 232/1/3 230/1/3 231/1/3
f 235/1/3 234/1/3 233/1/3
f 236/1/3 234/1/3 235/1/3
f 238/2/3 237/2/3 236/2/3
f 239/2/3 237/2/3 238/2/3
f 242/1/3 241/1/3 240/1/3
f 243/1/3 241/1/3 242/1/3
f 246/2/3 245/2/3 244/2/3
f 247/2/3 245/2/3 246/2/3
f 250/1/3 249/1/3 248/1/3
f 251/1/3 249/1/3 250/1/3
f 254/1/3 253/1/3 252/1/3
f 255/1/3 253/1/3 254/1/3
f 258/2/3 257/2/3 256/2/3
f 259/2/3 257/2/3 258/2/3
f 260/2/3 257/2/3 259/2/3
f 263/2/3 262/2/3 261/2/3
f 264/2/3 262/2/3 263/2/3
f 265/2/3 262/2/3 264/2/3
f 266/2/3 262/2/3 265/2/3
f 267/2/4 268/2/4 269/2/4
f 269/2/4 268/2/4 270/2/4
f 271/2/4 272/2/4 273/2/4
f 273/2/4 272/2/4 274/2/4
f 275/1/4 276/1/4 277/1/4
f 277/1/4 276/1/4 278/1/4
f 279/1/4 280/1/4 281/1/4
f 281/1/4 280/1/4 282/1/4
f 283/1/4 284/1/4 285/1/4
f 283/1/4 285/1/4 286/1/4
f 283/1/4 286/1/4 287/1/4
f 287/1/4 286/1/4 288/1/4
f 289/1/4 290/1/4 291/1/4
f 291/1/4 290/1/4 292/1/4
f 293/2/4 294/2/4 295/2/4
f 295/2/4 294/2/4 296/2/4
f 297/1/4 298/1/4 299/1/4
f 299/1/4 298/1/4 300/1/4
f 301/1/4 302/1/4 303/1/4
f 303/1/4 302/1/4 304/1/4
f 305/1/4 306/1/4 307/1/4
f 307/1/4 306/1/4 308/1/4
f 309/2/4 310/2/4 311/2/4
f 311/2/4 310/2/4 312/2/4
f 313/1/4 314/1/4 315/1/4
f 315/1/4 314/1/4 316/1/4
f 317/1/4 318/1/4 319/1/4
f 319/1/4 318/1/4 320/1/4
f 321/2/4 322/2/4 323/2/4
f 323/2/4 322/2/4 324/2/4
f 325/1/4 326/1/4 327/1/4
f 327/1/4 326/1/4 328/1/4
f 329/1/4 330/1/4 331/1/4
f 331/1/4 330/1/4 332/1/4
f 332/2/4 333/2/4 334/2/4
f 334/2/4 333/2/4 335/2/4
f 336/2/4 337/2/4 339/2/4
f 339/2/4 337/2/4 340/2/4
f 338/1/4 339/1/4 341/1/4
f 341/1/4 339/1/4 342/1/4
f 343/1/4 344/1/4 345/1/4
f 345/1/4 344/1/4 346/1/4
f 347/2/4 348/2/4 349/2/4
f 349/2/4 348/2/4 350/2/4
f 350/2/4 348/2/4 351/2/4
f 351/2/4 348/2/4 352/2/4
f 353/1/4 354/1/4 355/1/4
f 355/1/4 354/1/4 356/1/4
f 357/1/4 358/1/4 359/1/4
f 359/1/4 358/1/4 360/1/4
f 363/1/5 362/1/5 361/1/5
f 365/1/5 364/1/5 363/1/5
f 367/1/5 363/1/5 361/1/5
f 367/1/5 366/1/5 365/1/5
f 367/1/5 365/1/5 363/1/5
f 368/1/5 366/1/5 367/1/5
f 369/1/5 367/1/5 361/1/5
f 370/1/5 366/1/5 368/1/5
f 371/1/5 366/1/5 370/1/5
f 372/1/5 370/1/5 369/1/5
f 374/1/5 366/1/5 371/1/5
f 375/1/5 366/1/5 374/1/5
f 376/1/5 369/1/5 361/1/5
f 376/1/5 373/1/5 372/1/5
f 376/1/5 372/1/5 369/1/5
f 377/1/5 373/1/5 376/1/5
f 378/1/5 373/1/5 377/1/5
f 380/1/5 376/1/5 361/1/5
f 381/1/5 376/1/5 380/1/5
f 382/1/5 376/1/5 381/1/5
f 383/1/5 379/1/5 378/1/5
f 383/1/5 378/1/5 377/1/5
f 384/1/5 379/1/5 383/1/5
f 385/1/5 379/1/5 384/1/5
f 387/1/5 386/1/5 385/1/5
f 387/1/5 385/1/5 384/1/5
f 388/1/5 386/1/5 387/1/5
f 389/1/5 386/1/5 388/1/5
f 391/1/5 390/1/5 389/1/5
f 391/1/5 389/1/5 388/1/5
f 392/1/5 390/1/5 391/1/5
f 393/1/5 390/1/5 392/1/5
f 395/1/5 394/1/5 393/1/5
f 395/1/5 393/1/5 392/1/5
f 396/1/5 394/1/5 395/1/5
f 397/1/5 394/1/5 396/1/5
f 399/1/5 382/1/5 381/1/5
f 399/1/5 383/1/5 382/1/5
f 400/1/5 383/1/5 399/1/5
f 401/1/5 383/1/5 400/1/5
f 403/1/5 398/1/5 397/1/5
f 403/1/5 397/1/5 396/1/5
f 404/1/5 398/1/5 403/1/5
f 405/1/5 398/1/5 404/1/5
f 406/1/5 398/1/5 405/1/5
f 407/1/5 398/1/5 406/1/5
f 408/1/5 398/1/5 407/1/5
f 409/1/5 407/1/5 406/1/5
f 410/1/5 407/1/5 409/1/5
f 411/1/5 402/1/5 401/1/5
f 411/1/5 401/1/5 400/1/5
f 412/1/5 402/1/5 411/1/5
f 417/2/5 414/2/5 413/2/5
f 418/2/5 414/2/5 417/2/5
f 419/2/5 416/2/5 415/2/5
f 420/2/5 416/2/5 419/2/5
f 424/2/5 422/2/5 421/2/5
f 425/2/5 422/2/5 424/2/5
f 427/2/5 424/2/5 423/2/5
f 428/2/5 424/2/5 427/2/5
f 429/2/5 427/2/5 426/2/5
f 430/2/5 427/2/5 429/2/5
f 437/2/5 432/2/5 431/2/5
f 437/2/5 433/2/5 432/2/5
f 438/2/5 433/2/5 437/2/5
f 439/2/5 435/2/5 434/2/5
f 440/2/5 435/2/5 439/2/5
f 441/2/5 437/2/5 436/2/5
f 442/2/5 437/2/5 441/2/5
f 443/1/6 444/1/6 447/1/6
f 447/1/6 444/1/6 448/1/6
f 445/1/6 446/1/6 449/1/6
f 449/1/6 446/1/6 450/1/6
f 450/1/6 451/1/6 453/1/6
f 449/1/6 450/1/6 453/1/6
f 448/1/6 449/1/6 453/1/6
f 453/1/6 451/1/6 454/1/6
f 452/1/6 453/1/6 458/1/6
f 453/1/6 454/1/6 458/1/6
f 454/1/6 455/1/6 458/1/6
f 458/1/6 455/1/6 459/1/6
f 452/1/6 458/1/6 460/1/6
f 459/1/6 455/1/6 461/1/6
f 461/1/6 455/1/6 462/1/6
f 460/1/6 461/1/6 463/1/6
f 462/1/6 455/1/6 465/1/6
f 465/1/6 455/1/6 466/1/6
f 456/1/6 457/1/6 467/1/6
f 467/1/6 457/1/6 468/1/6
f 452/1/6 460/1/6 469/1/6
f 463/1/6 464/1/6 469/1/6
f 460/1/6 463/1/6 469/1/6
f 469/1/6 464/1/6 470/1/6
f 470/1/6 464/1/6 471/1/6
f 452/1/6 469/1/6 473/1/6
f 473/1/6 469/1/6 474/1/6
f 474/1/6 469/1/6 475/1/6
f 471/1/6 472/1/6 476/1/6
f 470/1/6 471/1/6 476/1/6
f 476/1/6 472/1/6 477/1/6
f 477/1/6 472/1/6 478/1/6
f 478/1/6 479/1/6 480/1/6
f 477/1/6 478/1/6 480/1/6
f 480/1/6 479/1/6 481/1/6
f 481/1/6 479/1/6 482/1/6
f 482/1/6 483/1/6 484/1/6
f 481/1/6 482/1/6 484/1/6
f 484/1/6 483/1/6 485/1/6
f 485/1/6 483/1/6 486/1/6
f 486/1/6 483/1/6 487/1/6
f 487/1/6 483/1/6 488/1/6
f 488/1/6 483/1/6 489/1/6
f 474/1/6 475/1/6 492/1/6
f 475/1/6 476/1/6 492/1/6
f 492/1/6 476/1/6 493/1/6
f 493/1/6 476/1/6 494/1/6
f 487/1/6 488/1/6 496/1/6
f 496/1/6 488/1/6 497/1/6
f 490/1/6 491/1/6 498/1/6
f 489/1/6 490/1/6 498/1/6
f 494/1/6 495/1/6 499/1/6
f 493/1/6 494/1/6 499/1/6
f 499/1/6 495/1/6 500/1/6
f 497/1/6 498/1/6 501/1/6
f 501/1/6 498/1/6 502/1/6
f 498/1/6 491/1/6 503/1/6
f 502/1/6 498/1/6 503/1/6
f 503/1/6 491/1/6 504/1/6
f 502/1/6 503/1/6 507/1/6
f 507/1/6 503/1/6 508/1/6
f 505/1/6 506/1/6 509/1/6
f 509/1/6 506/1/6 510/1/6
f 511/2/6 512/2/6 516/2/6
f 516/2/6 512/2/6 517/2/6
f 515/2/6 516/2/6 518/2/6
f 518/2/6 516/2/6 519/2/6
f 513/2/6 514/2/6 521/2/6
f 521/2/6 514/2/6 522/2/6
f 520/2/6 521/2/6 524/2/6
f 524/2/6 521/2/6 525/2/6
f 523/2/6 524/2/6 527/2/6
f 527/2/6 524/2/6 528/2/6
f 526/2/6 527/2/6 530/2/6
f 530/2/6 527/2/6 531/2/6
f 529/2/6 530/2/6 533/2/6
f 533/2/6 530/2/6 534/2/6
f 532/2/6 533/2/6 535/2/6
f 535/2/6 533/2/6 536/2/6
