# MagicaVoxel @ Ephtracy

# group
o 

# material
mtllib rail_r.mtl
usemtl palette

# normals
vn -1 0 0
vn 1 0 0
vn 0 0 1
vn 0 0 -1
vn 0 -1 0
vn 0 1 0

# texcoords
vt 0.306641 0.5
vt 0.994141 0.5

# verts
v -0.8 0 0.4
v -0.8 0 0.2
v -0.8 0.1 0.4
v -0.8 0.1 0.2
v -0.7 0 0.2
v -0.7 0 0
v -0.7 0.1 0.2
v -0.7 0.1 0
v -0.6 0.1 0.8
v -0.6 0.1 0.4
v -0.6 0.1 0.1
v -0.6 0.2 0.8
v -0.6 0.2 0.1
v -0.5 0 0.5
v -0.5 0 0.4
v -0.5 0 -0.3
v -0.5 0 -0.5
v -0.5 0.1 0.5
v -0.5 0.1 0.4
v -0.5 0.1 0.1
v -0.5 0.1 -0.1
v -0.5 0.1 -0.3
v -0.5 0.1 -0.5
v -0.5 0.2 0.1
v -0.5 0.2 -0.1
v -0.4 0 -0.2
v -0.4 0 -0.3
v -0.4 0 -0.5
v -0.4 0 -0.6
v -0.4 0.1 -0.1
v -0.4 0.1 -0.2
v -0.4 0.1 -0.3
v -0.4 0.1 -0.5
v -0.4 0.1 -0.6
v -0.4 0.2 -0.1
v -0.4 0.2 -0.3
v -0.3 0 -0.1
v -0.3 0 -0.2
v -0.3 0.1 -0.1
v -0.3 0.1 -0.2
v -0.3 0.1 -0.3
v -0.3 0.1 -0.4
v -0.3 0.2 -0.3
v -0.3 0.2 -0.4
v -0.2 0 0.6
v -0.2 0 0.5
v -0.2 0 0
v -0.2 0 -0.1
v -0.2 0.1 0.6
v -0.2 0.1 0.5
v -0.2 0.1 0
v -0.2 0.1 -0.1
v -0.1 0 0.1
v -0.1 0 0
v -0.1 0.1 0.1
v -0.1 0.1 0
v -0.1 0.1 -0.4
v -0.1 0.1 -0.5
v -0.1 0.2 -0.4
v -0.1 0.2 -0.5
v 0 0 0.2
v 0 0 0.1
v 0 0.1 0.2
v 0 0.1 0.1
v 0.1 0 0.3
v 0.1 0 0.2
v 0.1 0 -0.6
v 0.1 0 -0.7
v 0.1 0.1 0.3
v 0.1 0.1 0.2
v 0.1 0.1 -0.5
v 0.1 0.1 -0.6
v 0.1 0.1 -0.7
v 0.1 0.2 -0.5
v 0.1 0.2 -0.6
v 0.2 0 0.7
v 0.2 0 0.6
v 0.2 0 -0.5
v 0.2 0 -0.6
v 0.2 0.1 0.7
v 0.2 0.1 0.6
v 0.2 0.1 -0.5
v 0.2 0.1 -0.6
v 0.3 0 -0.2
v 0.3 0 -0.5
v 0.3 0 -0.7
v 0.3 0 -0.8
v 0.3 0.1 -0.2
v 0.3 0.1 -0.5
v 0.3 0.1 -0.7
v 0.3 0.1 -0.8
v 0.4 0 0
v 0.4 0 -0.2
v 0.4 0.1 0
v 0.4 0.1 -0.2
v 0.5 0.1 0.8
v 0.5 0.1 0.7
v 0.5 0.1 0.6
v 0.5 0.2 0.8
v 0.5 0.2 0.6
v 0.6 0 0.8
v 0.6 0 0.7
v 0.6 0.1 0.8
v 0.6 0.1 0.7
v 0.6 0.1 0.6
v 0.6 0.1 0.5
v 0.6 0.2 0.6
v 0.6 0.2 0.5
v -0.6 0 0.1
v -0.6 0 0
v -0.6 0.1 0.1
v -0.6 0.1 0
v -0.5 0.1 0.8
v -0.5 0.1 0.5
v -0.5 0.1 0.1
v -0.5 0.2 0.8
v -0.5 0.2 0.1
v -0.4 0 0.2
v -0.4 0 0.1
v -0.4 0.1 0.2
v -0.4 0.1 0.1
v -0.4 0.1 -0.1
v -0.4 0.2 0.1
v -0.4 0.2 -0.1
v -0.3 0.1 -0.1
v -0.3 0.1 -0.3
v -0.3 0.2 -0.1
v -0.3 0.2 -0.3
v -0.2 0 0.3
v -0.2 0 0.2
v -0.2 0 -0.5
v -0.2 0 -0.6
v -0.2 0.1 0.3
v -0.2 0.1 0.2
v -0.2 0.1 -0.5
v -0.2 0.1 -0.6
v -0.1 0 -0.4
v -0.1 0 -0.5
v -0.1 0.1 -0.3
v -0.1 0.1 -0.4
v -0.1 0.1 -0.5
v -0.1 0.2 -0.3
v -0.1 0.2 -0.4
v 0 0 -0.3
v 0 0 -0.4
v 0 0.1 -0.3
v 0 0.1 -0.4
v 0.1 0 -0.2
v 0.1 0 -0.3
v 0.1 0.1 -0.2
v 0.1 0.1 -0.3
v 0.1 0.1 -0.4
v 0.1 0.1 -0.5
v 0.1 0.2 -0.4
v 0.1 0.2 -0.5
v 0.2 0 -0.1
v 0.2 0 -0.2
v 0.2 0.1 -0.1
v 0.2 0.1 -0.2
v 0.3 0 0
v 0.3 0 -0.1
v 0.3 0.1 0
v 0.3 0.1 -0.1
v 0.5 0 -0.5
v 0.5 0 -0.8
v 0.5 0.1 -0.5
v 0.5 0.1 -0.6
v 0.5 0.1 -0.8
v 0.6 0 -0.2
v 0.6 0 -0.5
v 0.6 0.1 0.8
v 0.6 0.1 0.6
v 0.6 0.1 -0.2
v 0.6 0.1 -0.5
v 0.6 0.2 0.8
v 0.6 0.2 0.6
v 0.7 0 0.1
v 0.7 0 -0.2
v 0.7 0.1 0.1
v 0.7 0.1 -0.2
v 0.8 0 0.8
v 0.8 0 0.1
v 0.8 0.1 0.8
v 0.8 0.1 0.6
v 0.8 0.1 0.5
v 0.8 0.1 0.1
v 0.8 0.1 -0.5
v 0.8 0.1 -0.6
v 0.8 0.2 0.6
v 0.8 0.2 0.5
v 0.8 0.2 -0.5
v 0.8 0.2 -0.6
v -0.6 0.1 0.8
v -0.6 0.2 0.8
v -0.5 0.1 0.8
v -0.5 0.2 0.8
v 0.5 0.1 0.8
v 0.5 0.2 0.8
v 0.6 0 0.8
v 0.6 0.1 0.8
v 0.6 0.2 0.8
v 0.8 0 0.8
v 0.8 0.1 0.8
v 0.2 0 0.7
v 0.2 0.1 0.7
v 0.5 0.1 0.7
v 0.6 0 0.7
v 0.6 0.1 0.7
v -0.2 0 0.6
v -0.2 0.1 0.6
v 0.2 0 0.6
v 0.2 0.1 0.6
v 0.6 0.1 0.6
v 0.6 0.2 0.6
v 0.8 0.1 0.6
v 0.8 0.2 0.6
v -0.5 0 0.5
v -0.5 0.1 0.5
v -0.2 0 0.5
v -0.2 0.1 0.5
v -0.8 0 0.4
v -0.8 0.1 0.4
v -0.6 0.1 0.4
v -0.5 0 0.4
v -0.5 0.1 0.4
v 0 0 0.2
v 0 0.1 0.2
v 0.1 0 0.2
v 0.1 0.1 0.2
v -0.5 0.1 0.1
v -0.5 0.2 0.1
v -0.4 0.1 0.1
v -0.4 0.2 0.1
v -0.1 0 0.1
v -0.1 0.1 0.1
v 0 0 0.1
v 0 0.1 0.1
v -0.2 0 0
v -0.2 0.1 0
v -0.1 0 0
v -0.1 0.1 0
v -0.4 0.1 -0.1
v -0.4 0.2 -0.1
v -0.3 0 -0.1
v -0.3 0.1 -0.1
v -0.3 0.2 -0.1
v -0.2 0 -0.1
v -0.2 0.1 -0.1
v -0.4 0 -0.2
v -0.4 0.1 -0.2
v -0.3 0 -0.2
v -0.3 0.1 -0.2
v 0.3 0 -0.2
v 0.3 0.1 -0.2
v 0.4 0 -0.2
v 0.4 0.1 -0.2
v -0.5 0 -0.3
v -0.5 0.1 -0.3
v -0.4 0 -0.3
v -0.4 0.1 -0.3
v -0.3 0.1 -0.3
v -0.3 0.2 -0.3
v -0.1 0.1 -0.3
v -0.1 0.2 -0.3
v -0.1 0.1 -0.4
v -0.1 0.2 -0.4
v 0 0.1 -0.4
v 0.1 0.1 -0.4
v 0.1 0.2 -0.4
v 0.1 0.1 -0.5
v 0.1 0.2 -0.5
v 0.2 0 -0.5
v 0.2 0.1 -0.5
v 0.3 0 -0.5
v 0.3 0.1 -0.5
v 0.6 0.1 -0.5
v 0.8 0.1 -0.5
v 0.8 0.2 -0.5
v 0.1 0 -0.6
v 0.1 0.1 -0.6
v 0.2 0 -0.6
v 0.2 0.1 -0.6
v 0.5 0.1 0.6
v 0.5 0.2 0.6
v 0.6 0.1 0.6
v 0.6 0.2 0.6
v 0.6 0.1 0.5
v 0.6 0.2 0.5
v 0.8 0.1 0.5
v 0.8 0.2 0.5
v -0.2 0 0.3
v -0.2 0.1 0.3
v 0.1 0 0.3
v 0.1 0.1 0.3
v -0.8 0 0.2
v -0.8 0.1 0.2
v -0.7 0 0.2
v -0.7 0.1 0.2
v -0.4 0 0.2
v -0.4 0.1 0.2
v -0.2 0 0.2
v -0.2 0.1 0.2
v -0.6 0 0.1
v -0.6 0.1 0.1
v -0.6 0.2 0.1
v -0.5 0.1 0.1
v -0.5 0.2 0.1
v -0.4 0 0.1
v -0.4 0.1 0.1
v 0.7 0 0.1
v 0.7 0.1 0.1
v 0.8 0 0.1
v 0.8 0.1 0.1
v -0.7 0 0
v -0.7 0.1 0
v -0.6 0 0
v -0.6 0.1 0
v 0.3 0 0
v 0.3 0.1 0
v 0.4 0 0
v 0.4 0.1 0
v -0.5 0.1 -0.1
v -0.5 0.2 -0.1
v -0.4 0.1 -0.1
v -0.4 0.2 -0.1
v 0.2 0 -0.1
v 0.2 0.1 -0.1
v 0.3 0 -0.1
v 0.3 0.1 -0.1
v 0.1 0 -0.2
v 0.1 0.1 -0.2
v 0.2 0 -0.2
v 0.2 0.1 -0.2
v 0.6 0 -0.2
v 0.6 0.1 -0.2
v 0.7 0 -0.2
v 0.7 0.1 -0.2
v -0.4 0.1 -0.3
v -0.4 0.2 -0.3
v -0.3 0.1 -0.3
v -0.3 0.2 -0.3
v 0 0 -0.3
v 0 0.1 -0.3
v 0.1 0 -0.3
v 0.1 0.1 -0.3
v -0.3 0.1 -0.4
v -0.3 0.2 -0.4
v -0.1 0 -0.4
v -0.1 0.1 -0.4
v -0.1 0.2 -0.4
v 0 0 -0.4
v 0 0.1 -0.4
v -0.5 0 -0.5
v -0.5 0.1 -0.5
v -0.4 0 -0.5
v -0.4 0.1 -0.5
v -0.2 0 -0.5
v -0.2 0.1 -0.5
v -0.1 0 -0.5
v -0.1 0.1 -0.5
v -0.1 0.2 -0.5
v 0.1 0.1 -0.5
v 0.1 0.2 -0.5
v 0.5 0 -0.5
v 0.5 0.1 -0.5
v 0.6 0 -0.5
v 0.6 0.1 -0.5
v -0.4 0 -0.6
v -0.4 0.1 -0.6
v -0.2 0 -0.6
v -0.2 0.1 -0.6
v 0.1 0.1 -0.6
v 0.1 0.2 -0.6
v 0.5 0.1 -0.6
v 0.8 0.1 -0.6
v 0.8 0.2 -0.6
v 0.1 0 -0.7
v 0.1 0.1 -0.7
v 0.3 0 -0.7
v 0.3 0.1 -0.7
v 0.3 0 -0.8
v 0.3 0.1 -0.8
v 0.5 0 -0.8
v 0.5 0.1 -0.8
v 0.6 0 0.8
v 0.8 0 0.8
v 0.2 0 0.7
v 0.6 0 0.7
v -0.2 0 0.6
v 0.2 0 0.6
v -0.5 0 0.5
v -0.2 0 0.5
v -0.8 0 0.4
v -0.5 0 0.4
v -0.2 0 0.3
v 0.1 0 0.3
v -0.8 0 0.2
v -0.7 0 0.2
v -0.4 0 0.2
v -0.2 0 0.2
v 0 0 0.2
v 0.1 0 0.2
v -0.6 0 0.1
v -0.4 0 0.1
v -0.1 0 0.1
v 0 0 0.1
v 0.7 0 0.1
v 0.8 0 0.1
v -0.7 0 0
v -0.6 0 0
v -0.2 0 0
v -0.1 0 0
v 0.3 0 0
v 0.4 0 0
v -0.3 0 -0.1
v -0.2 0 -0.1
v 0.2 0 -0.1
v 0.3 0 -0.1
v -0.4 0 -0.2
v -0.3 0 -0.2
v 0.1 0 -0.2
v 0.2 0 -0.2
v 0.3 0 -0.2
v 0.4 0 -0.2
v 0.6 0 -0.2
v 0.7 0 -0.2
v -0.5 0 -0.3
v -0.4 0 -0.3
v 0 0 -0.3
v 0.1 0 -0.3
v -0.1 0 -0.4
v 0 0 -0.4
v -0.5 0 -0.5
v -0.4 0 -0.5
v -0.2 0 -0.5
v -0.1 0 -0.5
v 0.2 0 -0.5
v 0.3 0 -0.5
v 0.5 0 -0.5
v 0.6 0 -0.5
v -0.4 0 -0.6
v -0.2 0 -0.6
v 0.1 0 -0.6
v 0.2 0 -0.6
v 0.1 0 -0.7
v 0.3 0 -0.7
v 0.3 0 -0.8
v 0.5 0 -0.8
v -0.6 0.1 0.8
v -0.5 0.1 0.8
v 0.5 0.1 0.8
v 0.6 0.1 0.8
v 0.5 0.1 0.7
v 0.6 0.1 0.7
v -0.5 0.1 0.5
v -0.6 0.1 0.4
v -0.5 0.1 0.4
v -0.5 0.1 0.1
v -0.4 0.1 0.1
v -0.5 0.1 -0.1
v -0.4 0.1 -0.1
v -0.3 0.1 -0.1
v -0.4 0.1 -0.2
v -0.3 0.1 -0.2
v -0.1 0.1 -0.4
v 0 0.1 -0.4
v 0.1 0.1 -0.4
v -0.1 0.1 -0.5
v 0.1 0.1 -0.5
v 0.2 0.1 -0.5
v 0.5 0.1 -0.5
v 0.6 0.1 -0.5
v 0.8 0.1 -0.5
v 0.1 0.1 -0.6
v 0.2 0.1 -0.6
v 0.5 0.1 -0.6
v 0.8 0.1 -0.6
v 0.6 0.1 0.8
v 0.8 0.1 0.8
v 0.2 0.1 0.7
v 0.5 0.1 0.7
v -0.2 0.1 0.6
v 0.2 0.1 0.6
v 0.5 0.1 0.6
v 0.6 0.1 0.6
v 0.8 0.1 0.6
v -0.5 0.1 0.5
v -0.2 0.1 0.5
v 0.6 0.1 0.5
v 0.8 0.1 0.5
v -0.8 0.1 0.4
v -0.6 0.1 0.4
v -0.2 0.1 0.3
v 0.1 0.1 0.3
v -0.8 0.1 0.2
v -0.7 0.1 0.2
v -0.4 0.1 0.2
v -0.2 0.1 0.2
v 0 0.1 0.2
v 0.1 0.1 0.2
v -0.6 0.1 0.1
v -0.5 0.1 0.1
v -0.4 0.1 0.1
v -0.1 0.1 0.1
v 0 0.1 0.1
v 0.7 0.1 0.1
v 0.8 0.1 0.1
v -0.7 0.1 0
v -0.6 0.1 0
v -0.2 0.1 0
v -0.1 0.1 0
v 0.3 0.1 0
v 0.4 0.1 0
v -0.3 0.1 -0.1
v -0.2 0.1 -0.1
v 0.2 0.1 -0.1
v 0.3 0.1 -0.1
v 0.1 0.1 -0.2
v 0.2 0.1 -0.2
v 0.3 0.1 -0.2
v 0.4 0.1 -0.2
v 0.6 0.1 -0.2
v 0.7 0.1 -0.2
v -0.5 0.1 -0.3
v -0.4 0.1 -0.3
v -0.3 0.1 -0.3
v -0.1 0.1 -0.3
v 0 0.1 -0.3
v 0.1 0.1 -0.3
v -0.3 0.1 -0.4
v -0.1 0.1 -0.4
v 0 0.1 -0.4
v -0.5 0.1 -0.5
v -0.4 0.1 -0.5
v -0.2 0.1 -0.5
v -0.1 0.1 -0.5
v 0.3 0.1 -0.5
v 0.6 0.1 -0.5
v -0.4 0.1 -0.6
v -0.2 0.1 -0.6
v 0.1 0.1 -0.6
v 0.5 0.1 -0.6
v 0.1 0.1 -0.7
v 0.3 0.1 -0.7
v 0.3 0.1 -0.8
v 0.5 0.1 -0.8
v -0.6 0.2 0.8
v -0.5 0.2 0.8
v 0.5 0.2 0.8
v 0.6 0.2 0.8
v 0.5 0.2 0.6
v 0.6 0.2 0.6
v 0.8 0.2 0.6
v 0.6 0.2 0.5
v 0.8 0.2 0.5
v -0.6 0.2 0.1
v -0.5 0.2 0.1
v -0.4 0.2 0.1
v -0.5 0.2 -0.1
v -0.4 0.2 -0.1
v -0.3 0.2 -0.1
v -0.4 0.2 -0.3
v -0.3 0.2 -0.3
v -0.1 0.2 -0.3
v -0.3 0.2 -0.4
v -0.1 0.2 -0.4
v 0.1 0.2 -0.4
v -0.1 0.2 -0.5
v 0.1 0.2 -0.5
v 0.8 0.2 -0.5
v 0.1 0.2 -0.6
v 0.8 0.2 -0.6

# faces
f 3/1/1 2/1/1 1/1/1
f 4/1/1 2/1/1 3/1/1
f 7/1/1 6/1/1 5/1/1
f 8/1/1 6/1/1 7/1/1
f 12/2/1 10/2/1 9/2/1
f 12/2/1 11/2/1 10/2/1
f 13/2/1 11/2/1 12/2/1
f 18/1/1 15/1/1 14/1/1
f 19/1/1 15/1/1 18/1/1
f 22/1/1 17/1/1 16/1/1
f 23/1/1 17/1/1 22/1/1
f 24/2/1 21/2/1 20/2/1
f 25/2/1 21/2/1 24/2/1
f 31/1/1 27/1/1 26/1/1
f 32/1/1 27/1/1 31/1/1
f 33/1/1 29/1/1 28/1/1
f 34/1/1 29/1/1 33/1/1
f 35/2/1 32/2/1 31/2/1
f 35/2/1 31/2/1 30/2/1
f 36/2/1 32/2/1 35/2/1
f 39/1/1 38/1/1 37/1/1
f 40/1/1 38/1/1 39/1/1
f 43/2/1 42/2/1 41/2/1
f 44/2/1 42/2/1 43/2/1
f 49/1/1 46/1/1 45/1/1
f 50/1/1 46/1/1 49/1/1
f 51/1/1 48/1/1 47/1/1
f 52/1/1 48/1/1 51/1/1
f 55/1/1 54/1/1 53/1/1
f 56/1/1 54/1/1 55/1/1
f 59/2/1 58/2/1 57/2/1
f 60/2/1 58/2/1 59/2/1
f 63/1/1 62/1/1 61/1/1
f 64/1/1 62/1/1 63/1/1
f 69/1/1 66/1/1 65/1/1
f 70/1/1 66/1/1 69/1/1
f 72/1/1 68/1/1 67/1/1
f 73/1/1 68/1/1 72/1/1
f 74/2/1 72/2/1 71/2/1
f 75/2/1 72/2/1 74/2/1
f 80/1/1 77/1/1 76/1/1
f 81/1/1 77/1/1 80/1/1
f 82/1/1 79/1/1 78/1/1
f 83/1/1 79/1/1 82/1/1
f 88/1/1 85/1/1 84/1/1
f 89/1/1 85/1/1 88/1/1
f 90/1/1 87/1/1 86/1/1
f 91/1/1 87/1/1 90/1/1
f 94/1/1 93/1/1 92/1/1
f 95/1/1 93/1/1 94/1/1
f 99/2/1 97/2/1 96/2/1
f 99/2/1 98/2/1 97/2/1
f 100/2/1 98/2/1 99/2/1
f 103/1/1 102/1/1 101/1/1
f 104/1/1 102/1/1 103/1/1
f 107/2/1 106/2/1 105/2/1
f 108/2/1 106/2/1 107/2/1
f 109/1/2 110/1/2 111/1/2
f 111/1/2 110/1/2 112/1/2
f 113/2/2 114/2/2 116/2/2
f 114/2/2 115/2/2 116/2/2
f 116/2/2 115/2/2 117/2/2
f 118/1/2 119/1/2 120/1/2
f 120/1/2 119/1/2 121/1/2
f 121/2/2 122/2/2 123/2/2
f 123/2/2 122/2/2 124/2/2
f 125/2/2 126/2/2 127/2/2
f 127/2/2 126/2/2 128/2/2
f 129/1/2 130/1/2 133/1/2
f 133/1/2 130/1/2 134/1/2
f 131/1/2 132/1/2 135/1/2
f 135/1/2 132/1/2 136/1/2
f 137/1/2 138/1/2 140/1/2
f 140/1/2 138/1/2 141/1/2
f 139/2/2 140/2/2 142/2/2
f 142/2/2 140/2/2 143/2/2
f 144/1/2 145/1/2 146/1/2
f 146/1/2 145/1/2 147/1/2
f 148/1/2 149/1/2 150/1/2
f 150/1/2 149/1/2 151/1/2
f 152/2/2 153/2/2 154/2/2
f 154/2/2 153/2/2 155/2/2
f 156/1/2 157/1/2 158/1/2
f 158/1/2 157/1/2 159/1/2
f 160/1/2 161/1/2 162/1/2
f 162/1/2 161/1/2 163/1/2
f 164/1/2 165/1/2 166/1/2
f 166/1/2 165/1/2 167/1/2
f 167/1/2 165/1/2 168/1/2
f 169/1/2 170/1/2 173/1/2
f 173/1/2 170/1/2 174/1/2
f 171/2/2 172/2/2 175/2/2
f 175/2/2 172/2/2 176/2/2
f 177/1/2 178/1/2 179/1/2
f 179/1/2 178/1/2 180/1/2
f 181/1/2 182/1/2 183/1/2
f 183/1/2 182/1/2 184/1/2
f 184/1/2 182/1/2 185/1/2
f 185/1/2 182/1/2 186/1/2
f 184/2/2 185/2/2 189/2/2
f 189/2/2 185/2/2 190/2/2
f 187/2/2 188/2/2 191/2/2
f 191/2/2 188/2/2 192/2/2
f 195/2/3 194/2/3 193/2/3
f 196/2/3 194/2/3 195/2/3
f 200/2/3 198/2/3 197/2/3
f 201/2/3 198/2/3 200/2/3
f 202/1/3 200/1/3 199/1/3
f 203/1/3 200/1/3 202/1/3
f 206/1/3 205/1/3 204/1/3
f 207/1/3 206/1/3 204/1/3
f 208/1/3 206/1/3 207/1/3
f 211/1/3 210/1/3 209/1/3
f 212/1/3 210/1/3 211/1/3
f 215/2/3 214/2/3 213/2/3
f 216/2/3 214/2/3 215/2/3
f 219/1/3 218/1/3 217/1/3
f 220/1/3 218/1/3 219/1/3
f 223/1/3 222/1/3 221/1/3
f 224/1/3 223/1/3 221/1/3
f 225/1/3 223/1/3 224/1/3
f 228/1/3 227/1/3 226/1/3
f 229/1/3 227/1/3 228/1/3
f 232/2/3 231/2/3 230/2/3
f 233/2/3 231/2/3 232/2/3
f 236/1/3 235/1/3 234/1/3
f 237/1/3 235/1/3 236/1/3
f 240/1/3 239/1/3 238/1/3
f 241/1/3 239/1/3 240/1/3
f 245/2/3 243/2/3 242/2/3
f 246/2/3 243/2/3 245/2/3
f 247/1/3 245/1/3 244/1/3
f 248/1/3 245/1/3 247/1/3
f 251/1/3 250/1/3 249/1/3
f 252/1/3 250/1/3 251/1/3
f 255/1/3 254/1/3 253/1/3
f 256/1/3 254/1/3 255/1/3
f 259/1/3 258/1/3 257/1/3
f 260/1/3 258/1/3 259/1/3
f 263/2/3 262/2/3 261/2/3
f 264/2/3 262/2/3 263/2/3
f 267/2/3 266/2/3 265/2/3
f 268/2/3 266/2/3 267/2/3
f 269/2/3 266/2/3 268/2/3
f 273/2/3 271/2/3 270/2/3
f 274/1/3 273/1/3 272/1/3
f 275/2/3 271/2/3 273/2/3
f 275/1/3 273/1/3 274/1/3
f 276/2/3 271/2/3 275/2/3
f 277/2/3 271/2/3 276/2/3
f 278/2/3 271/2/3 277/2/3
f 281/1/3 280/1/3 279/1/3
f 282/1/3 280/1/3 281/1/3
f 283/2/4 284/2/4 285/2/4
f 285/2/4 284/2/4 286/2/4
f 287/2/4 288/2/4 289/2/4
f 289/2/4 288/2/4 290/2/4
f 291/1/4 292/1/4 293/1/4
f 293/1/4 292/1/4 294/1/4
f 295/1/4 296/1/4 297/1/4
f 297/1/4 296/1/4 298/1/4
f 299/1/4 300/1/4 301/1/4
f 301/1/4 300/1/4 302/1/4
f 303/1/4 304/1/4 306/1/4
f 304/2/4 305/2/4 306/2/4
f 306/2/4 305/2/4 307/2/4
f 303/1/4 306/1/4 308/1/4
f 308/1/4 306/1/4 309/1/4
f 310/1/4 311/1/4 312/1/4
f 312/1/4 311/1/4 313/1/4
f 314/1/4 315/1/4 316/1/4
f 316/1/4 315/1/4 317/1/4
f 318/1/4 319/1/4 320/1/4
f 320/1/4 319/1/4 321/1/4
f 322/2/4 323/2/4 324/2/4
f 324/2/4 323/2/4 325/2/4
f 326/1/4 327/1/4 328/1/4
f 328/1/4 327/1/4 329/1/4
f 330/1/4 331/1/4 332/1/4
f 332/1/4 331/1/4 333/1/4
f 334/1/4 335/1/4 336/1/4
f 336/1/4 335/1/4 337/1/4
f 338/2/4 339/2/4 340/2/4
f 340/2/4 339/2/4 341/2/4
f 342/1/4 343/1/4 344/1/4
f 344/1/4 343/1/4 345/1/4
f 346/2/4 347/2/4 349/2/4
f 349/2/4 347/2/4 350/2/4
f 348/1/4 349/1/4 351/1/4
f 351/1/4 349/1/4 352/1/4
f 353/1/4 354/1/4 355/1/4
f 355/1/4 354/1/4 356/1/4
f 357/1/4 358/1/4 359/1/4
f 359/1/4 358/1/4 360/1/4
f 360/2/4 361/2/4 362/2/4
f 362/2/4 361/2/4 363/2/4
f 364/1/4 365/1/4 366/1/4
f 366/1/4 365/1/4 367/1/4
f 368/1/4 369/1/4 370/1/4
f 370/1/4 369/1/4 371/1/4
f 372/2/4 373/2/4 374/2/4
f 374/2/4 373/2/4 375/2/4
f 375/2/4 373/2/4 376/2/4
f 377/1/4 378/1/4 379/1/4
f 379/1/4 378/1/4 380/1/4
f 381/1/4 382/1/4 383/1/4
f 383/1/4 382/1/4 384/1/4
f 388/1/5 386/1/5 385/1/5
f 390/1/5 388/1/5 387/1/5
f 392/1/5 390/1/5 389/1/5
f 394/1/5 392/1/5 391/1/5
f 395/1/5 390/1/5 392/1/5
f 395/1/5 394/1/5 393/1/5
f 395/1/5 392/1/5 394/1/5
f 396/1/5 390/1/5 395/1/5
f 397/1/5 395/1/5 393/1/5
f 398/1/5 395/1/5 397/1/5
f 399/1/5 395/1/5 398/1/5
f 400/1/5 395/1/5 399/1/5
f 402/1/5 390/1/5 396/1/5
f 403/1/5 399/1/5 398/1/5
f 404/1/5 399/1/5 403/1/5
f 406/1/5 402/1/5 401/1/5
f 407/1/5 386/1/5 388/1/5
f 407/1/5 388/1/5 390/1/5
f 407/1/5 402/1/5 406/1/5
f 407/1/5 390/1/5 402/1/5
f 408/1/5 386/1/5 407/1/5
f 409/1/5 403/1/5 398/1/5
f 410/1/5 403/1/5 409/1/5
f 412/1/5 406/1/5 405/1/5
f 412/1/5 407/1/5 406/1/5
f 413/1/5 407/1/5 412/1/5
f 414/1/5 407/1/5 413/1/5
f 416/1/5 412/1/5 411/1/5
f 416/1/5 413/1/5 412/1/5
f 417/1/5 413/1/5 416/1/5
f 418/1/5 413/1/5 417/1/5
f 420/1/5 416/1/5 415/1/5
f 420/1/5 417/1/5 416/1/5
f 421/1/5 417/1/5 420/1/5
f 422/1/5 417/1/5 421/1/5
f 424/1/5 407/1/5 414/1/5
f 425/1/5 407/1/5 424/1/5
f 426/1/5 407/1/5 425/1/5
f 428/1/5 421/1/5 420/1/5
f 428/1/5 420/1/5 419/1/5
f 429/1/5 421/1/5 428/1/5
f 430/1/5 421/1/5 429/1/5
f 431/1/5 428/1/5 427/1/5
f 431/1/5 429/1/5 428/1/5
f 432/1/5 429/1/5 431/1/5
f 433/1/5 431/1/5 427/1/5
f 434/1/5 431/1/5 433/1/5
f 435/1/5 431/1/5 434/1/5
f 436/1/5 431/1/5 435/1/5
f 438/1/5 425/1/5 424/1/5
f 438/1/5 424/1/5 423/1/5
f 439/1/5 425/1/5 438/1/5
f 440/1/5 425/1/5 439/1/5
f 441/1/5 435/1/5 434/1/5
f 442/1/5 435/1/5 441/1/5
f 444/1/5 439/1/5 438/1/5
f 444/1/5 438/1/5 437/1/5
f 445/1/5 444/1/5 443/1/5
f 446/1/5 439/1/5 444/1/5
f 446/1/5 444/1/5 445/1/5
f 447/1/5 439/1/5 446/1/5
f 448/1/5 439/1/5 447/1/5
f 453/2/5 452/2/5 451/2/5
f 454/2/5 452/2/5 453/2/5
f 455/2/5 450/2/5 449/2/5
f 456/2/5 455/2/5 449/2/5
f 457/2/5 455/2/5 456/2/5
f 460/2/5 459/2/5 458/2/5
f 461/2/5 459/2/5 460/2/5
f 463/2/5 462/2/5 461/2/5
f 464/2/5 462/2/5 463/2/5
f 468/2/5 466/2/5 465/2/5
f 468/2/5 467/2/5 466/2/5
f 469/2/5 467/2/5 468/2/5
f 474/2/5 470/2/5 469/2/5
f 475/2/5 470/2/5 474/2/5
f 476/2/5 472/2/5 471/2/5
f 476/2/5 473/2/5 472/2/5
f 477/2/5 473/2/5 476/2/5
f 480/1/6 481/1/6 483/1/6
f 483/1/6 481/1/6 484/1/6
f 478/1/6 479/1/6 485/1/6
f 485/1/6 479/1/6 486/1/6
f 483/1/6 484/1/6 488/1/6
f 482/1/6 483/1/6 488/1/6
f 484/1/6 485/1/6 488/1/6
f 488/1/6 485/1/6 489/1/6
f 487/1/6 488/1/6 493/1/6
f 488/1/6 489/1/6 493/1/6
f 489/1/6 490/1/6 493/1/6
f 493/1/6 490/1/6 494/1/6
f 491/1/6 492/1/6 495/1/6
f 495/1/6 492/1/6 496/1/6
f 487/1/6 493/1/6 497/1/6
f 497/1/6 493/1/6 498/1/6
f 494/1/6 490/1/6 500/1/6
f 496/1/6 492/1/6 501/1/6
f 487/1/6 497/1/6 502/1/6
f 502/1/6 497/1/6 503/1/6
f 499/1/6 500/1/6 505/1/6
f 500/1/6 490/1/6 506/1/6
f 505/1/6 500/1/6 506/1/6
f 506/1/6 490/1/6 507/1/6
f 496/1/6 501/1/6 508/1/6
f 508/1/6 501/1/6 509/1/6
f 504/1/6 505/1/6 511/1/6
f 505/1/6 506/1/6 511/1/6
f 511/1/6 506/1/6 512/1/6
f 512/1/6 506/1/6 513/1/6
f 510/1/6 511/1/6 515/1/6
f 511/1/6 512/1/6 515/1/6
f 515/1/6 512/1/6 516/1/6
f 516/1/6 512/1/6 517/1/6
f 514/1/6 515/1/6 518/1/6
f 515/1/6 516/1/6 518/1/6
f 518/1/6 516/1/6 519/1/6
f 513/1/6 506/1/6 521/1/6
f 521/1/6 506/1/6 522/1/6
f 522/1/6 506/1/6 523/1/6
f 514/1/6 518/1/6 526/1/6
f 526/1/6 518/1/6 527/1/6
f 527/1/6 518/1/6 528/1/6
f 528/1/6 518/1/6 529/1/6
f 524/1/6 525/1/6 530/1/6
f 525/1/6 526/1/6 530/1/6
f 527/1/6 528/1/6 531/1/6
f 531/1/6 528/1/6 532/1/6
f 524/1/6 530/1/6 533/1/6
f 530/1/6 531/1/6 533/1/6
f 533/1/6 531/1/6 534/1/6
f 534/1/6 531/1/6 535/1/6
f 535/1/6 531/1/6 536/1/6
f 520/1/6 521/1/6 537/1/6
f 521/1/6 522/1/6 537/1/6
f 537/1/6 522/1/6 538/1/6
f 534/1/6 535/1/6 539/1/6
f 539/1/6 535/1/6 540/1/6
f 541/1/6 542/1/6 543/1/6
f 543/1/6 542/1/6 544/1/6
f 544/1/6 542/1/6 545/1/6
f 545/1/6 542/1/6 546/1/6
f 549/2/6 550/2/6 551/2/6
f 551/2/6 550/2/6 552/2/6
f 552/2/6 553/2/6 554/2/6
f 554/2/6 553/2/6 555/2/6
f 547/2/6 548/2/6 556/2/6
f 556/2/6 548/2/6 557/2/6
f 557/2/6 558/2/6 559/2/6
f 559/2/6 558/2/6 560/2/6
f 560/2/6 561/2/6 562/2/6
f 562/2/6 561/2/6 563/2/6
f 563/2/6 564/2/6 565/2/6
f 565/2/6 564/2/6 566/2/6
f 566/2/6 567/2/6 568/2/6
f 568/2/6 567/2/6 569/2/6
f 569/2/6 570/2/6 571/2/6
f 571/2/6 570/2/6 572/2/6
